<?xml version="1.0" encoding="UTF-8"?>
<svg version="1.1" xmlns="http://www.w3.org/2000/svg" width="403" height="403">
<path d="M0 0 C1.12697548 -0.00021904 1.12697548 -0.00021904 2.27671814 -0.0004425 C4.76572535 0.00025543 7.25465817 0.00804225 9.74365234 0.01586914 C11.4671525 0.01773374 13.19065318 0.01915745 14.91415405 0.02015686 C19.45484882 0.0239787 23.9955117 0.03380617 28.53619385 0.04486084 C33.16784229 0.0550821 37.79949588 0.05965602 42.43115234 0.06469727 C51.5223122 0.07542872 60.61344837 0.09250117 69.70458984 0.11352539 C69.70458984 0.77352539 69.70458984 1.43352539 69.70458984 2.11352539 C70.26146484 2.34040039 70.81833984 2.56727539 71.39208984 2.80102539 C74.36618572 4.48902575 76.42467849 6.58029056 78.70458984 9.11352539 C78.70458984 9.77352539 78.70458984 10.43352539 78.70458984 11.11352539 C79.36458984 11.11352539 80.02458984 11.11352539 80.70458984 11.11352539 C80.70458984 11.77352539 80.70458984 12.43352539 80.70458984 13.11352539 C81.36458984 13.11352539 82.02458984 13.11352539 82.70458984 13.11352539 C82.70458984 13.77352539 82.70458984 14.43352539 82.70458984 15.11352539 C83.36458984 15.11352539 84.02458984 15.11352539 84.70458984 15.11352539 C86.82958984 16.98852539 86.82958984 16.98852539 88.70458984 19.11352539 C88.70458984 19.77352539 88.70458984 20.43352539 88.70458984 21.11352539 C89.36458984 21.11352539 90.02458984 21.11352539 90.70458984 21.11352539 C90.70458984 22.10352539 90.70458984 23.09352539 90.70458984 24.11352539 C91.36458984 24.11352539 92.02458984 24.11352539 92.70458984 24.11352539 C92.70458984 24.77352539 92.70458984 25.43352539 92.70458984 26.11352539 C93.36458984 26.11352539 94.02458984 26.11352539 94.70458984 26.11352539 C94.70458984 28.09352539 94.70458984 30.07352539 94.70458984 32.11352539 C95.36458984 32.44352539 96.02458984 32.77352539 96.70458984 33.11352539 C95.71458984 33.11352539 94.72458984 33.11352539 93.70458984 33.11352539 C92.05458984 33.77352539 90.40458984 34.43352539 88.70458984 35.11352539 C88.70458984 71.74352539 88.70458984 108.37352539 88.70458984 146.11352539 C92.99458984 146.11352539 97.28458984 146.11352539 101.70458984 146.11352539 C102.70458984 152.11352539 102.70458984 152.11352539 101.61344147 153.96471596 C99.01972762 155.52569791 97.18770236 155.49106746 94.16296387 155.49447632 C93.01043625 155.50293579 91.85790863 155.51139526 90.67045593 155.52011108 C89.40490372 155.51403839 88.1393515 155.5079657 86.83544922 155.50170898 C85.4901334 155.50577376 84.14482091 155.51111511 82.79951477 155.51763916 C79.14456581 155.53132996 75.48987054 155.52600698 71.83491707 155.5165019 C68.01261834 155.50891438 64.19034156 155.51594839 60.36804199 155.5206604 C53.94877211 155.52612061 47.52960573 155.51891942 41.11035156 155.50463867 C33.68544963 155.48831158 26.26079482 155.49359991 18.83589888 155.51011789 C12.46469744 155.52372524 6.09357045 155.52565612 -0.27764082 155.51780188 C-4.08449321 155.5131212 -7.89122939 155.51251126 -11.69807434 155.52241135 C-15.27682392 155.5310679 -18.85525444 155.52508352 -22.4339695 155.50772858 C-24.3764006 155.50185966 -26.31885864 155.51079048 -28.26127625 155.52011108 C-29.41380386 155.51165161 -30.56633148 155.50319214 -31.75378418 155.49447632 C-33.25921909 155.4927797 -33.25921909 155.4927797 -34.79506683 155.49104881 C-37.29541016 155.11352539 -37.29541016 155.11352539 -39.12613678 153.75377846 C-40.74970433 151.47624293 -40.58264547 149.84226091 -40.29541016 147.11352539 C-39.96541016 146.78352539 -39.63541016 146.45352539 -39.29541016 146.11352539 C-35.00541016 146.11352539 -30.71541016 146.11352539 -26.29541016 146.11352539 C-26.29541016 109.48352539 -26.29541016 72.85352539 -26.29541016 35.11352539 C-27.94541016 34.45352539 -29.59541016 33.79352539 -31.29541016 33.11352539 C-32.29541016 32.11352539 -32.29541016 32.11352539 -32.85791016 28.98852539 C-32.12584979 23.94544286 -30.15281782 22.69232554 -26.24072266 19.69165039 C-24.06031887 18.08231181 -24.06031887 18.08231181 -22.29541016 15.11352539 C-21.63541016 15.11352539 -20.97541016 15.11352539 -20.29541016 15.11352539 C-20.03759766 14.52700195 -19.77978516 13.94047852 -19.51416016 13.33618164 C-18.20034544 10.94015416 -16.77357005 9.42440987 -14.79541016 7.55102539 C-12.57444283 5.43828316 -11.01798599 3.69738913 -9.29541016 1.11352539 C-6.3129746 -0.37769239 -3.26925264 -0.01648933 0 0 Z " fill="#F4F4F4" transform="translate(172.29541015625,133.886474609375)"/>
<path d="M0 0 C2.31 0.33 4.62 0.66 7 1 C7 1.66 7 2.32 7 3 C7.66 3 8.32 3 9 3 C9 4.65 9 6.3 9 8 C9.66 8 10.32 8 11 8 C11 9.98 11 11.96 11 14 C11.66 14 12.32 14 13 14 C13 15.98 13 17.96 13 20 C13.66 20 14.32 20 15 20 C15 21.65 15 23.3 15 25 C15.66 25 16.32 25 17 25 C17 26.32 17 27.64 17 29 C17.66 29 18.32 29 19 29 C19 30.32 19 31.64 19 33 C19.66 33 20.32 33 21 33 C22.4606285 35.64738916 23 36.89448334 23 40 C23.66 40 24.32 40 25 40 C25 40.99 25 41.98 25 43 C25.66 43 26.32 43 27 43 C27 43.99 27 44.98 27 46 C27.66 46 28.32 46 29 46 C30.78305524 48.63892176 31.99059621 50.97178863 33 54 C33.66 54 34.32 54 35 54 C35 54.99 35 55.98 35 57 C35.66 57 36.32 57 37 57 C37 57.66 37 58.32 37 59 C37.66 59 38.32 59 39 59 C40.62109375 60.6796875 40.62109375 60.6796875 42.4375 62.875 C44.58400884 65.46193722 46.16776562 67.11184374 49 69 C49 69.66 49 70.32 49 71 C49.66 71 50.32 71 51 71 C51 71.66 51 72.32 51 73 C51.99 73 52.98 73 54 73 C54 73.66 54 74.32 54 75 C54.66 75 55.32 75 56 75 C56 75.66 56 76.32 56 77 C56.99 77 57.98 77 59 77 C59 77.66 59 78.32 59 79 C59.99 79 60.98 79 62 79 C62 79.66 62 80.32 62 81 C62.99 81 63.98 81 65 81 C65 81.66 65 82.32 65 83 C65.99 83 66.98 83 68 83 C68 83.66 68 84.32 68 85 C70.31 85.66 72.62 86.32 75 87 C75 87.66 75 88.32 75 89 C75.8971875 89.2165625 75.8971875 89.2165625 76.8125 89.4375 C78.56150404 89.8872439 80.28677023 90.42892341 82 91 C82 91.66 82 92.32 82 93 C83.32 93 84.64 93 86 93 C86 93.66 86 94.32 86 95 C87.65 95 89.3 95 91 95 C91 95.66 91 96.32 91 97 C92.32 97 93.64 97 95 97 C95 97.66 95 98.32 95 99 C96.010625 98.95875 97.02125 98.9175 98.0625 98.875 C102.18076052 99.00573843 105.11830533 99.73250786 109 101 C109 101.66 109 102.32 109 103 C112.3 103 115.6 103 119 103 C119 103.66 119 104.32 119 105 C120.60681641 104.98259766 120.60681641 104.98259766 122.24609375 104.96484375 C123.64322743 104.95546701 125.04036299 104.94636669 126.4375 104.9375 C127.14455078 104.92912109 127.85160156 104.92074219 128.58007812 104.91210938 C130.38693559 104.90346412 132.19387603 104.94779989 134 105 C134.33 105.33 134.66 105.66 135 106 C136.33043625 106.0983721 137.66593344 106.13078592 139 106.1328125 C139.804375 106.13410156 140.60875 106.13539063 141.4375 106.13671875 C142.7059375 106.13091797 142.7059375 106.13091797 144 106.125 C145.2684375 106.13080078 145.2684375 106.13080078 146.5625 106.13671875 C147.366875 106.13542969 148.17125 106.13414062 149 106.1328125 C150.11375 106.13112061 150.11375 106.13112061 151.25 106.12939453 C153.02825811 106.18942216 153.02825811 106.18942216 154 105 C156.35313555 104.92728259 158.70833668 104.91629132 161.0625 104.9375 C162.99802734 104.95103516 162.99802734 104.95103516 164.97265625 104.96484375 C165.97167969 104.97644531 166.97070312 104.98804688 168 105 C168 104.34 168 103.68 168 103 C170.97 103 173.94 103 177 103 C177 102.34 177 101.68 177 101 C179.64 101 182.28 101 185 101 C185 100.34 185 99.68 185 99 C186.98 99 188.96 99 191 99 C191 98.34 191 97.68 191 97 C192.98 97 194.96 97 197 97 C197 96.34 197 95.68 197 95 C198.32 95 199.64 95 201 95 C201 94.34 201 93.68 201 93 C202.32 93 203.64 93 205 93 C205 92.34 205 91.68 205 91 C206.32 91 207.64 91 209 91 C209 90.34 209 89.68 209 89 C210.32 89 211.64 89 213 89 C213 88.34 213 87.68 213 87 C214.32 87 215.64 87 217 87 C217 86.34 217 85.68 217 85 C217.99 85 218.98 85 220 85 C220 84.34 220 83.68 220 83 C220.99 83 221.98 83 223 83 C223 82.34 223 81.68 223 81 C223.99 81 224.98 81 226 81 C226 80.34 226 79.68 226 79 C228.475 78.01 228.475 78.01 231 77 C231 76.34 231 75.68 231 75 C232.328125 73.9140625 232.328125 73.9140625 234.25 72.625 C238.32967738 69.67327651 241.87774723 66.35627542 245.4375 62.8125 C245.96956055 62.28930176 246.50162109 61.76610352 247.04980469 61.22705078 C249.42034108 58.83886962 250.92145582 57.23563255 252 54 C252.66 54 253.32 54 254 54 C254.28875 53.401875 254.5775 52.80375 254.875 52.1875 C256 50 256 50 258 47 C258.66 47 259.32 47 260 47 C260 46.01 260 45.02 260 44 C260.66 44 261.32 44 262 44 C262 43.01 262 42.02 262 41 C262.66 41 263.32 41 264 41 C264 40.01 264 39.02 264 38 C264.66 38 265.32 38 266 38 C266 36.68 266 35.36 266 34 C266.66 34 267.32 34 268 34 C268 32.68 268 31.36 268 30 C268.66 30 269.32 30 270 30 C270.144375 29.2575 270.28875 28.515 270.4375 27.75 C270.90187492 25.47972261 271.41863569 23.24240521 272 21 C272.66 21 273.32 21 274 21 C274.04898437 20.36191406 274.09796875 19.72382813 274.1484375 19.06640625 C274.22320312 18.24011719 274.29796875 17.41382813 274.375 16.5625 C274.44460938 15.73878906 274.51421875 14.91507812 274.5859375 14.06640625 C274.72257812 13.38449219 274.85921875 12.70257813 275 12 C275.66 11.67 276.32 11.34 277 11 C277 11.66 277 12.32 277 13 C279.64 13 282.28 13 285 13 C285 15.97 285 18.94 285 22 C284.34 22 283.68 22 283 22 C282.855625 22.7425 282.71125 23.485 282.5625 24.25 C282.09812508 26.52027739 281.58136431 28.75759479 281 31 C280.34 31 279.68 31 279 31 C279 32.32 279 33.64 279 35 C278.34 35 277.68 35 277 35 C276.896875 35.53625 276.79375 36.0725 276.6875 36.625 C275.81907303 39.62502044 274.44379704 42.2379535 273 45 C272.34 45 271.68 45 271 45 C270.91492188 45.53496094 270.82984375 46.06992187 270.7421875 46.62109375 C264.70196121 65.98160853 239.48125005 85.7813292 222.375 95.25 C220.58377101 96.16752161 218.79211314 97.0842065 217 98 C216.15308594 98.48984375 215.30617188 98.9796875 214.43359375 99.484375 C197.04837999 109.53722588 175.70691171 116.32125375 155.6015625 116.30078125 C154.1672438 116.30720894 154.1672438 116.30720894 152.70394897 116.31376648 C150.69554429 116.31946967 148.68711897 116.32003993 146.67871094 116.31567383 C143.63960843 116.31251518 140.60148258 116.33601965 137.5625 116.36132812 C127.58930883 116.39339314 118.5730399 116.09652751 109 113 C107.0864435 112.54909106 105.16995495 112.11033608 103.25 111.6875 C89.55273872 108.19639049 77.82923025 102.65301391 65.89208984 95.18115234 C64.20673439 94.12905561 62.50480582 93.10361375 60.80078125 92.08203125 C55.4439487 88.81712773 50.739012 85.25194279 46.140625 80.984375 C43.38877708 78.43339189 40.51251516 76.04071969 37.62890625 73.640625 C35.88595048 71.88512997 34.9770453 70.25849666 34 68 C33.34 68 32.68 68 32 68 C32 67.34 32 66.68 32 66 C31.34 66 30.68 66 30 66 C30 65.34 30 64.68 30 64 C29.34 64 28.68 64 28 64 C27.34 62.35 26.68 60.7 26 59 C25.34 59 24.68 59 24 59 C24 58.01 24 57.02 24 56 C23.34 56 22.68 56 22 56 C19.875 54.25 19.875 54.25 18 52 C18 50.68 18 49.36 18 48 C17.34 48 16.68 48 16 48 C16 47.01 16 46.02 16 45 C15.34 45 14.68 45 14 45 C12.5393715 42.35261084 12 41.10551666 12 38 C11.34 38 10.68 38 10 38 C6.71428571 29.57142857 6.71428571 29.57142857 6 25 C5.34 25 4.68 25 4 25 C4 23.35 4 21.7 4 20 C3.34 20 2.68 20 2 20 C1.5186659 18.27143541 1.04003029 16.54211929 0.5625 14.8125 C0.29566406 13.84957031 0.02882812 12.88664062 -0.24609375 11.89453125 C-2.18404908 4.45398773 -2.18404908 4.45398773 -1.0625 1.6875 C-0.711875 1.130625 -0.36125 0.57375 0 0 Z " fill="#BCBCBC" transform="translate(60,245)"/>
<path d="M0 0 C1.12697548 -0.00021904 1.12697548 -0.00021904 2.27671814 -0.0004425 C4.76572535 0.00025543 7.25465817 0.00804225 9.74365234 0.01586914 C11.4671525 0.01773374 13.19065318 0.01915745 14.91415405 0.02015686 C19.45484882 0.0239787 23.9955117 0.03380617 28.53619385 0.04486084 C33.16784229 0.0550821 37.79949588 0.05965602 42.43115234 0.06469727 C51.5223122 0.07542872 60.61344837 0.09250117 69.70458984 0.11352539 C69.70458984 0.77352539 69.70458984 1.43352539 69.70458984 2.11352539 C70.26146484 2.34040039 70.81833984 2.56727539 71.39208984 2.80102539 C74.36618572 4.48902575 76.42467849 6.58029056 78.70458984 9.11352539 C78.70458984 9.77352539 78.70458984 10.43352539 78.70458984 11.11352539 C79.36458984 11.11352539 80.02458984 11.11352539 80.70458984 11.11352539 C80.70458984 11.77352539 80.70458984 12.43352539 80.70458984 13.11352539 C81.36458984 13.11352539 82.02458984 13.11352539 82.70458984 13.11352539 C82.70458984 13.77352539 82.70458984 14.43352539 82.70458984 15.11352539 C83.36458984 15.11352539 84.02458984 15.11352539 84.70458984 15.11352539 C86.82958984 16.98852539 86.82958984 16.98852539 88.70458984 19.11352539 C88.70458984 19.77352539 88.70458984 20.43352539 88.70458984 21.11352539 C89.36458984 21.11352539 90.02458984 21.11352539 90.70458984 21.11352539 C90.70458984 22.10352539 90.70458984 23.09352539 90.70458984 24.11352539 C91.36458984 24.11352539 92.02458984 24.11352539 92.70458984 24.11352539 C93.19958984 27.57852539 93.19958984 27.57852539 93.70458984 31.11352539 C92.71458984 31.11352539 91.72458984 31.11352539 90.70458984 31.11352539 C90.70458984 31.77352539 90.70458984 32.43352539 90.70458984 33.11352539 C75.07580624 33.13685477 59.44702731 33.15450476 43.81823063 33.16533756 C36.56200136 33.17050044 29.30578289 33.17754297 22.04956055 33.18896484 C15.72725128 33.19891195 9.40494983 33.20537888 3.08263296 33.20761389 C-0.26697765 33.20892095 -3.61656589 33.21200652 -6.96616936 33.21925545 C-10.69954661 33.22646159 -14.43287674 33.22751651 -18.16625977 33.22705078 C-19.28475311 33.23064606 -20.40324646 33.23424133 -21.55563354 33.23794556 C-23.07224327 33.23588356 -23.07224327 33.23588356 -24.61949158 33.23377991 C-25.94549078 33.2351626 -25.94549078 33.2351626 -27.29827785 33.23657322 C-29.29541016 33.11352539 -29.29541016 33.11352539 -30.29541016 32.11352539 C-30.58820713 29.18555568 -30.7870798 26.96628994 -30.29541016 24.11352539 C-27.98291016 21.36352539 -27.98291016 21.36352539 -25.29541016 19.11352539 C-24.46009766 17.96883789 -24.46009766 17.96883789 -23.60791016 16.80102539 C-23.17478516 16.24415039 -22.74166016 15.68727539 -22.29541016 15.11352539 C-21.63541016 15.11352539 -20.97541016 15.11352539 -20.29541016 15.11352539 C-20.03759766 14.52700195 -19.77978516 13.94047852 -19.51416016 13.33618164 C-18.20034544 10.94015416 -16.77357005 9.42440987 -14.79541016 7.55102539 C-12.57444283 5.43828316 -11.01798599 3.69738913 -9.29541016 1.11352539 C-6.3129746 -0.37769239 -3.26925264 -0.01648933 0 0 Z " fill="#F3F3F3" transform="translate(172.29541015625,133.886474609375)"/>
<path d="M0 0 C0.33 0.66 0.66 1.32 1 2 C1.90363281 1.9278125 2.80726562 1.855625 3.73828125 1.78125 C5.50751953 1.64203125 5.50751953 1.64203125 7.3125 1.5 C8.48425781 1.4071875 9.65601563 1.314375 10.86328125 1.21875 C12.905194 1.07635011 14.9531279 1 17 1 C16.34 1.33 15.68 1.66 15 2 C15.144375 2.55429688 15.28875 3.10859375 15.4375 3.6796875 C15.623125 4.40414062 15.80875 5.12859375 16 5.875 C16.185625 6.59429687 16.37125 7.31359375 16.5625 8.0546875 C17 10 17 10 17 12 C19.64 11.34 22.28 10.68 25 10 C25 9.34 25 8.68 25 8 C27.3125 7.75 27.3125 7.75 30 8 C31.97610386 10.04424538 33 11.1176825 33 14 C33.66 14 34.32 14 35 14 C35 14.66 35 15.32 35 16 C35.66 16 36.32 16 37 16 C37.41176754 19.60296594 37.1535853 20.78402067 35 23.8125 C34.34 24.534375 33.68 25.25625 33 26 C33.66 26 34.32 26 35 26 C35 27.32 35 28.64 35 30 C37.64 30 40.28 30 43 30 C43 30.99 43 31.98 43 33 C43.66 33 44.32 33 45 33 C45 36.3 45 39.6 45 43 C44.34 43 43.68 43 43 43 C43 43.99 43 44.98 43 46 C40.29120665 47.35439668 37.99066732 47.06501451 35 47 C34.67 48.98 34.34 50.96 34 53 C35.485 53.99 35.485 53.99 37 55 C37.5625 57.6875 37.5625 57.6875 37 61 C35.22641039 63.56527889 33.19599334 65.79093527 31 68 C31.99 68.495 31.99 68.495 33 69 C29.77272143 70.61363928 27.31076949 69.08456242 24 68 C23.2575 67.608125 22.515 67.21625 21.75 66.8125 C19.82703217 65.67636556 19.82703217 65.67636556 17 67 C17 67.99 17 68.98 17 70 C16.34 70 15.68 70 15 70 C15 71.32 15 72.64 15 74 C15.99 74.495 15.99 74.495 17 75 C13.94730154 76.52634923 11.24154311 75.83794444 7.875 75.5625 C6.59367187 75.46066406 5.31234375 75.35882813 3.9921875 75.25390625 C2.51105469 75.12822266 2.51105469 75.12822266 1 75 C0.67 74.01 0.34 73.02 0 72 C-0.66 72 -1.32 72 -2 72 C-2 70.35 -2 68.7 -2 67 C-4.34533951 66.23043864 -4.34533951 66.23043864 -7 66 C-8.02196992 66.97753644 -9.01979625 67.9805881 -10 69 C-13.1875 69.6875 -13.1875 69.6875 -16 70 C-16.2475 69.21625 -16.495 68.4325 -16.75 67.625 C-17.72120368 64.85960111 -17.72120368 64.85960111 -20.0625 64.0625 C-22 63 -22 63 -22.875 60.0625 C-23 57 -23 57 -21 54 C-20.83300768 50.87478167 -20.83300768 50.87478167 -21 48 C-22.11375 47.71125 -23.2275 47.4225 -24.375 47.125 C-28 46 -28 46 -30 44 C-30.1953125 41.1796875 -30.1953125 41.1796875 -30.125 37.875 C-30.10695313 36.77929688 -30.08890625 35.68359375 -30.0703125 34.5546875 C-30.04710938 33.71164063 -30.02390625 32.86859375 -30 32 C-29.34 32 -28.68 32 -28 32 C-28 31.34 -28 30.68 -28 30 C-25.36 30 -22.72 30 -20 30 C-19.49576981 24.70558305 -20.81076967 22.18586481 -24 18 C-23.34 17.67 -22.68 17.34 -22 17 C-21.855625 16.34 -21.71125 15.68 -21.5625 15 C-21.376875 14.34 -21.19125 13.68 -21 13 C-20.01 12.67 -19.02 12.34 -18 12 C-17.67 11.34 -17.34 10.68 -17 10 C-16.34 10 -15.68 10 -15 10 C-15 9.34 -15 8.68 -15 8 C-13.35 8 -11.7 8 -10 8 C-10 8.66 -10 9.32 -10 10 C-7.69 10.33 -5.38 10.66 -3 11 C-2.67 9.35 -2.34 7.7 -2 6 C-1.34 6 -0.68 6 0 6 C-0.185625 5.195625 -0.37125 4.39125 -0.5625 3.5625 C-0.706875 2.716875 -0.85125 1.87125 -1 1 C-0.67 0.67 -0.34 0.34 0 0 Z M0.8125 27 C0.09707031 27.37125 -0.61835937 27.7425 -1.35546875 28.125 C-2.16951172 28.558125 -2.16951172 28.558125 -3 29 C-3 29.66 -3 30.32 -3 31 C-3.66 31 -4.32 31 -5 31 C-6.31626692 34.61973402 -7 37.09567131 -7 41 C-6.34 41 -5.68 41 -5 41 C-5.061875 41.7425 -5.12375 42.485 -5.1875 43.25 C-4.96646289 46.49187763 -4.27837542 47.72162458 -2 50 C-1.01 50 -0.02 50 1 50 C1 50.66 1 51.32 1 52 C4.96 52 8.92 52 13 52 C13 51.34 13 50.68 13 50 C13.99 50 14.98 50 16 50 C16 49.34 16 48.68 16 48 C16.66 48 17.32 48 18 48 C20.02558881 44.65060119 20.21738987 42.13037449 20.125 38.25 C20.09792969 36.77273437 20.09792969 36.77273437 20.0703125 35.265625 C20.04710938 34.51796875 20.02390625 33.7703125 20 33 C19.34 33 18.68 33 18 33 C17.92523438 32.38640625 17.85046875 31.7728125 17.7734375 31.140625 C17.18654301 28.83987482 17.18654301 28.83987482 15.0390625 27.734375 C14.24242188 27.40953125 13.44578125 27.0846875 12.625 26.75 C11.83351563 26.41484375 11.04203125 26.0796875 10.2265625 25.734375 C6.36855554 24.46190955 4.26836531 25.18708705 0.8125 27 Z " fill="#E0E0E0" transform="translate(54,164)"/>
<path d="M0 0 C2.95032855 0.29553376 5.52164683 1.22457317 8.30078125 2.23046875 C8.32763537 4.54290667 8.34710966 6.85543145 8.36328125 9.16796875 C8.37488281 10.45574219 8.38648438 11.74351563 8.3984375 13.0703125 C8.30078125 16.23046875 8.30078125 16.23046875 7.30078125 17.23046875 C7.06791117 18.91230823 6.88813959 20.60171035 6.73828125 22.29296875 C6.65449219 23.21207031 6.57070312 24.13117187 6.484375 25.078125 C6.39349609 26.14353516 6.39349609 26.14353516 6.30078125 27.23046875 C5.64078125 27.23046875 4.98078125 27.23046875 4.30078125 27.23046875 C4.34203125 28.11734375 4.38328125 29.00421875 4.42578125 29.91796875 C4.30180879 33.20323888 3.68690221 35.2849617 2.30078125 38.23046875 C1.64078125 38.23046875 0.98078125 38.23046875 0.30078125 38.23046875 C0.30078125 39.22046875 0.30078125 40.21046875 0.30078125 41.23046875 C-0.35921875 41.23046875 -1.01921875 41.23046875 -1.69921875 41.23046875 C-1.97765625 42.25140625 -1.97765625 42.25140625 -2.26171875 43.29296875 C-5.94785086 50.82549958 -12.87127866 55.35703998 -20.5078125 58.3203125 C-23.88757429 59.28418581 -26.69173022 59.49717108 -30.19921875 59.48046875 C-31.8234375 59.48820312 -31.8234375 59.48820312 -33.48046875 59.49609375 C-36.69921875 59.23046875 -36.69921875 59.23046875 -39.91796875 58.15234375 C-42.73621719 56.91021819 -42.73621719 56.91021819 -45.69921875 58.23046875 C-45.65796875 59.32359375 -45.61671875 60.41671875 -45.57421875 61.54296875 C-45.69921875 65.23046875 -45.69921875 65.23046875 -47.69921875 68.23046875 C-47.03921875 68.56046875 -46.37921875 68.89046875 -45.69921875 69.23046875 C-49.16643204 70.9640754 -52.9377419 69.7140872 -56.69921875 69.23046875 C-56.69921875 65.93046875 -56.69921875 62.63046875 -56.69921875 59.23046875 C-56.03921875 59.23046875 -55.37921875 59.23046875 -54.69921875 59.23046875 C-54.69921875 57.25046875 -54.69921875 55.27046875 -54.69921875 53.23046875 C-54.03921875 53.23046875 -53.37921875 53.23046875 -52.69921875 53.23046875 C-52.69921875 50.59046875 -52.69921875 47.95046875 -52.69921875 45.23046875 C-53.35921875 45.23046875 -54.01921875 45.23046875 -54.69921875 45.23046875 C-54.69921875 40.61046875 -54.69921875 35.99046875 -54.69921875 31.23046875 C-54.03921875 31.23046875 -53.37921875 31.23046875 -52.69921875 31.23046875 C-52.69921875 29.25046875 -52.69921875 27.27046875 -52.69921875 25.23046875 C-52.03921875 25.23046875 -51.37921875 25.23046875 -50.69921875 25.23046875 C-50.69921875 24.24046875 -50.69921875 23.25046875 -50.69921875 22.23046875 C-50.03921875 22.23046875 -49.37921875 22.23046875 -48.69921875 22.23046875 C-48.69921875 21.24046875 -48.69921875 20.25046875 -48.69921875 19.23046875 C-48.03921875 19.23046875 -47.37921875 19.23046875 -46.69921875 19.23046875 C-46.43109375 18.59109375 -46.16296875 17.95171875 -45.88671875 17.29296875 C-44.69921875 15.23046875 -44.69921875 15.23046875 -41.69921875 14.23046875 C-41.69921875 13.57046875 -41.69921875 12.91046875 -41.69921875 12.23046875 C-40.70921875 12.23046875 -39.71921875 12.23046875 -38.69921875 12.23046875 C-38.69921875 11.57046875 -38.69921875 10.91046875 -38.69921875 10.23046875 C-35.6111218 8.46584192 -34.46609739 8.23046875 -30.69921875 8.23046875 C-30.69921875 7.57046875 -30.69921875 6.91046875 -30.69921875 6.23046875 C-29.04921875 6.23046875 -27.39921875 6.23046875 -25.69921875 6.23046875 C-25.69921875 5.57046875 -25.69921875 4.91046875 -25.69921875 4.23046875 C-23.38921875 4.23046875 -21.07921875 4.23046875 -18.69921875 4.23046875 C-18.69921875 3.57046875 -18.69921875 2.91046875 -18.69921875 2.23046875 C-17.84457031 2.16988281 -16.98992187 2.10929687 -16.109375 2.046875 C-14.45228516 1.92119141 -14.45228516 1.92119141 -12.76171875 1.79296875 C-11.65957031 1.71175781 -10.55742187 1.63054688 -9.421875 1.546875 C-6.07746656 1.15821347 -3.64736797 0.07790495 0 0 Z M-39.69921875 43.23046875 C-38.69921875 45.23046875 -38.69921875 45.23046875 -38.69921875 45.23046875 Z " fill="#E8E8E8" transform="translate(230.69921875,39.76953125)"/>
<path d="M0 0 C1.65 0.66 3.3 1.32 5 2 C5 13.88 5 25.76 5 38 C7.64 38 10.28 38 13 38 C13 38.66 13 39.32 13 40 C13.66 40 14.32 40 15 40 C15.36163387 45.42450806 15.36163387 45.42450806 13.94560242 47.67793274 C11.01783806 49.66739439 8.09853506 49.39321574 4.68286133 49.34057617 C3.94115189 49.34101425 3.19944244 49.34145233 2.43525696 49.34190369 C-0.01608616 49.33981383 -2.46674513 49.31647419 -4.91796875 49.29296875 C-6.61761603 49.28737348 -8.31726815 49.28310306 -10.016922 49.28010559 C-14.49031941 49.26865134 -18.96342459 49.23917927 -23.43670654 49.20599365 C-28.00138394 49.17530521 -32.56610855 49.16160288 -37.13085938 49.14648438 C-46.08736797 49.11431005 -55.04365969 49.06310675 -64 49 C-66.03125 45.3203125 -66.03125 45.3203125 -65.75 42.4375 C-65 40 -65 40 -63 37 C-61.02880859 36.7512207 -61.02880859 36.7512207 -58.6484375 36.92578125 C-57.79765625 36.98056641 -56.946875 37.03535156 -56.0703125 37.09179688 C-55.18085938 37.16462891 -54.29140625 37.23746094 -53.375 37.3125 C-52.4778125 37.37373047 -51.580625 37.43496094 -50.65625 37.49804688 C-48.43650078 37.65154017 -46.21807783 37.82399574 -44 38 C-44 33.71 -44 29.42 -44 25 C-43.34 25 -42.68 25 -42 25 C-42.66 23.35 -43.32 21.7 -44 20 C-43.01 20 -42.02 20 -41 20 C-41 20.66 -41 21.32 -41 22 C-38.36 22 -35.72 22 -33 22 C-33 27.28 -33 32.56 -33 38 C-30.03 38 -27.06 38 -24 38 C-24.495 30.575 -24.495 30.575 -25 23 C-24.34 22.67 -23.68 22.34 -23 22 C-23 22.66 -23 23.32 -23 24 C-22.34 24 -21.68 24 -21 24 C-21 23.34 -21 22.68 -21 22 C-19.02 22 -17.04 22 -15 22 C-15 22.66 -15 23.32 -15 24 C-14.34 24 -13.68 24 -13 24 C-13 28.62 -13 33.24 -13 38 C-10.69 38 -8.38 38 -6 38 C-6 26.45 -6 14.9 -6 3 C-4.02 2.01 -2.04 1.02 0 0 Z " fill="#BBBBBB" transform="translate(368,204)"/>
<path d="M0 0 C3.3 0.33 6.6 0.66 10 1 C10 1.66 10 2.32 10 3 C11.98 3 13.96 3 16 3 C16 3.66 16 4.32 16 5 C17.65 5 19.3 5 21 5 C21 5.66 21 6.32 21 7 C22.65 7 24.3 7 26 7 C26 7.66 26 8.32 26 9 C27.32 9 28.64 9 30 9 C30 9.66 30 10.32 30 11 C31.32 11 32.64 11 34 11 C34 11.66 34 12.32 34 13 C34.99 13 35.98 13 37 13 C37 13.66 37 14.32 37 15 C38.32 15 39.64 15 41 15 C41 15.66 41 16.32 41 17 C41.928125 17.2165625 41.928125 17.2165625 42.875 17.4375 C45 18 45 18 47 19 C47 19.66 47 20.32 47 21 C47.99 21 48.98 21 50 21 C50 21.66 50 22.32 50 23 C52.475 23.99 52.475 23.99 55 25 C55 25.66 55 26.32 55 27 C55.99 27 56.98 27 58 27 C58 27.66 58 28.32 58 29 C58.59329102 29.26876953 59.18658203 29.53753906 59.79785156 29.81445312 C62.00540033 31.00290732 63.46542882 32.20742389 65.234375 33.96875 C65.80800781 34.53980469 66.38164062 35.11085937 66.97265625 35.69921875 C67.55917969 36.29347656 68.14570313 36.88773438 68.75 37.5 C69.35199219 38.09425781 69.95398438 38.68851563 70.57421875 39.30078125 C71.14269531 39.87183594 71.71117187 40.44289062 72.296875 41.03125 C72.81604492 41.55267578 73.33521484 42.07410156 73.87011719 42.61132812 C75 44 75 44 75 46 C75.66 46 76.32 46 77 46 C77.99 48.475 77.99 48.475 79 51 C79.66 51 80.32 51 81 51 C81.99 53.475 81.99 53.475 83 56 C83.66 56 84.32 56 85 56 C87 59 87 59 87 62 C87.66 62 88.32 62 89 62 C89 63.32 89 64.64 89 66 C89.66 66 90.32 66 91 66 C91 66.99 91 67.98 91 69 C91.66 69 92.32 69 93 69 C93 69.99 93 70.98 93 72 C93.66 72 94.32 72 95 72 C95 73.32 95 74.64 95 76 C95.66 76 96.32 76 97 76 C97 77.32 97 78.64 97 80 C97.66 80 98.32 80 99 80 C101.26113102 84.38094135 101.88614956 89.14999866 101 94 C98 96 98 96 95.5 95.9375 C92.13558165 94.67584312 91.52674149 93.19888692 90 90 C88.65028525 87.01642002 88 85.29665696 88 82 C87.34 82 86.68 82 86 82 C85.566875 80.7625 85.13375 79.525 84.6875 78.25 C83.50158931 75.04804113 82.10026213 72.70033702 80 70 C80 69.01 80 68.02 80 67 C79.34 67 78.68 67 78 67 C78 66.01 78 65.02 78 64 C77.34 64 76.68 64 76 64 C74.21694476 61.36107824 73.00940379 59.02821137 72 56 C71.34 56 70.68 56 70 56 C69.59394531 55.31292969 69.18789063 54.62585938 68.76953125 53.91796875 C59.15455618 38.06281118 41.30321667 27.65132912 25 20 C23.26874188 19.10821524 21.53936533 18.21276155 19.8125 17.3125 C13.18322779 13.9978639 6.30959121 11.3123144 -1 10 C-0.67 6.7 -0.34 3.4 0 0 Z " fill="#C8C8C8" transform="translate(242,71)"/>
<path d="M0 0 C0.3643441 5.46516154 0.3643441 5.46516154 -1.21875 7.7890625 C-3.29965696 9.20371416 -5.05958715 9.76489679 -7.5 10.375 C-13.31781822 12.00968956 -18.56962314 14.3697674 -24 17 C-24.62245605 17.29567871 -25.24491211 17.59135742 -25.88623047 17.89599609 C-33.6984288 21.61383812 -41.08788925 25.35941151 -47.984375 30.65234375 C-50.02319451 32.01550796 -51.60263321 32.57344149 -54 33 C-54 33.66 -54 34.32 -54 35 C-54.66 35 -55.32 35 -56 35 C-56 35.66 -56 36.32 -56 37 C-57.62390477 38.38509525 -59.30140333 39.70758949 -61 41 C-66.58265804 45.46469314 -70.77911062 50.26770045 -75 56 C-75.59039062 56.76054687 -76.18078125 57.52109375 -76.7890625 58.3046875 C-79.9367119 62.34722263 -79.9367119 62.34722263 -82 67 C-82.66 67 -83.32 67 -84 67 C-84 67.99 -84 68.98 -84 70 C-84.66 70 -85.32 70 -86 70 C-86.144375 70.598125 -86.28875 71.19625 -86.4375 71.8125 C-86.8872439 73.56150404 -87.42892341 75.28677023 -88 77 C-88.66 77 -89.32 77 -90 77 C-90 78.32 -90 79.64 -90 81 C-90.66 81 -91.32 81 -92 81 C-92 82.32 -92 83.64 -92 85 C-92.66 85 -93.32 85 -94 85 C-94 85.99 -94 86.98 -94 88 C-93.34 88.33 -92.68 88.66 -92 89 C-95.11864545 90.55932272 -97.66295335 89.65549131 -101 89 C-103 87 -103 87 -103.125 83.875 C-103.08375 82.92625 -103.0425 81.9775 -103 81 C-102.34 81 -101.68 81 -101 81 C-101 79.35 -101 77.7 -101 76 C-100.34 76 -99.68 76 -99 76 C-99 74.68 -99 73.36 -99 72 C-98.34 72 -97.68 72 -97 72 C-96.855625 71.401875 -96.71125 70.80375 -96.5625 70.1875 C-96.1127561 68.43849596 -95.57107659 66.71322977 -95 65 C-94.34 65 -93.68 65 -93 65 C-93 64.01 -93 63.02 -93 62 C-92.34 62 -91.68 62 -91 62 C-90.855625 61.38125 -90.71125 60.7625 -90.5625 60.125 C-90 58 -90 58 -89 56 C-88.34 56 -87.68 56 -87 56 C-87 55.34 -87 54.68 -87 54 C-86.34 54 -85.68 54 -85 54 C-84.855625 53.38125 -84.71125 52.7625 -84.5625 52.125 C-84 50 -84 50 -83 48 C-82.34 48 -81.68 48 -81 48 C-80.731875 47.41734375 -80.46375 46.8346875 -80.1875 46.234375 C-78.98519009 43.97213399 -77.66174087 42.19423682 -76 40.25 C-75.484375 39.63640625 -74.96875 39.0228125 -74.4375 38.390625 C-73 37 -73 37 -71 37 C-70.731875 36.360625 -70.46375 35.72125 -70.1875 35.0625 C-69 33 -69 33 -66 32 C-66 31.34 -66 30.68 -66 30 C-64.3203125 28.4921875 -64.3203125 28.4921875 -62.125 26.875 C-61.40570313 26.33617188 -60.68640625 25.79734375 -59.9453125 25.2421875 C-58 24 -58 24 -56 24 C-56 23.34 -56 22.68 -56 22 C-55.01 22 -54.02 22 -53 22 C-53 21.34 -53 20.68 -53 20 C-50 18 -50 18 -47 18 C-47 17.34 -47 16.68 -47 16 C-44.35261084 14.5393715 -43.10551666 14 -40 14 C-40 13.34 -40 12.68 -40 12 C-39.01 12 -38.02 12 -37 12 C-37 11.34 -37 10.68 -37 10 C-35.68 10 -34.36 10 -33 10 C-33 9.34 -33 8.68 -33 8 C-31.68 8 -30.36 8 -29 8 C-29 7.34 -29 6.68 -29 6 C-27.35 6 -25.7 6 -24 6 C-24 5.34 -24 4.68 -24 4 C-22.02 4 -20.04 4 -18 4 C-18 3.34 -18 2.68 -18 2 C-12.12116651 -0.61281488 -6.29268272 -0.18328202 0 0 Z " fill="#C3C3C4" transform="translate(169,72)"/>
<path d="M0 0 C0.495 0.99 0.495 0.99 1 2 C3.64 2 6.28 2 9 2 C9 4.97 9 7.94 9 11 C8.34 11 7.68 11 7 11 C6.855625 11.7425 6.71125 12.485 6.5625 13.25 C6.09812508 15.52027739 5.58136431 17.75759479 5 20 C4.34 20 3.68 20 3 20 C3 21.32 3 22.64 3 24 C2.34 24 1.68 24 1 24 C0.896875 24.53625 0.79375 25.0725 0.6875 25.625 C-0.18092697 28.62502044 -1.55620296 31.2379535 -3 34 C-3.66 34 -4.32 34 -5 34 C-5.08507812 34.53496094 -5.17015625 35.06992187 -5.2578125 35.62109375 C-11.29803879 54.98160853 -36.51874995 74.7813292 -53.625 84.25 C-55.41509605 85.16973005 -57.20676066 86.08641373 -59 87 C-60.85576744 88.03881215 -62.70993122 89.08049418 -64.5625 90.125 C-77.19078947 97 -77.19078947 97 -84 97 C-84 94.33333333 -84 91.66666667 -84 89 C-87.465 89.495 -87.465 89.495 -91 90 C-91 89.34 -91 88.68 -91 88 C-89.02 88 -87.04 88 -85 88 C-85 87.34 -85 86.68 -85 86 C-83.02 86 -81.04 86 -79 86 C-79 85.34 -79 84.68 -79 84 C-77.68 84 -76.36 84 -75 84 C-75 83.34 -75 82.68 -75 82 C-73.68 82 -72.36 82 -71 82 C-71 81.34 -71 80.68 -71 80 C-69.68 80 -68.36 80 -67 80 C-67 79.34 -67 78.68 -67 78 C-65.68 78 -64.36 78 -63 78 C-63 77.34 -63 76.68 -63 76 C-61.68 76 -60.36 76 -59 76 C-59 75.34 -59 74.68 -59 74 C-58.01 74 -57.02 74 -56 74 C-56 73.34 -56 72.68 -56 72 C-55.01 72 -54.02 72 -53 72 C-53 71.34 -53 70.68 -53 70 C-52.01 70 -51.02 70 -50 70 C-50 69.34 -50 68.68 -50 68 C-47.525 67.01 -47.525 67.01 -45 66 C-45 65.34 -45 64.68 -45 64 C-43.671875 62.9140625 -43.671875 62.9140625 -41.75 61.625 C-37.67032262 58.67327651 -34.12225277 55.35627542 -30.5625 51.8125 C-30.03043945 51.28930176 -29.49837891 50.76610352 -28.95019531 50.22705078 C-26.57965892 47.83886962 -25.07854418 46.23563255 -24 43 C-23.34 43 -22.68 43 -22 43 C-21.71125 42.401875 -21.4225 41.80375 -21.125 41.1875 C-20 39 -20 39 -18 36 C-17.34 36 -16.68 36 -16 36 C-16 35.01 -16 34.02 -16 33 C-15.34 33 -14.68 33 -14 33 C-14 32.01 -14 31.02 -14 30 C-13.34 30 -12.68 30 -12 30 C-12 29.01 -12 28.02 -12 27 C-11.34 27 -10.68 27 -10 27 C-10 25.68 -10 24.36 -10 23 C-9.34 23 -8.68 23 -8 23 C-8 21.68 -8 20.36 -8 19 C-7.34 19 -6.68 19 -6 19 C-5.855625 18.2575 -5.71125 17.515 -5.5625 16.75 C-5.09812508 14.47972261 -4.58136431 12.24240521 -4 10 C-3.34 10 -2.68 10 -2 10 C-1.93941406 9.36191406 -1.87882812 8.72382813 -1.81640625 8.06640625 C-1.69072266 6.82697266 -1.69072266 6.82697266 -1.5625 5.5625 C-1.44068359 4.32693359 -1.44068359 4.32693359 -1.31640625 3.06640625 C-1 1 -1 1 0 0 Z " fill="#C5C5C6" transform="translate(336,256)"/>
<path d="M0 0 C1.32 1.32 2.64 2.64 4 4 C3.34 4 2.68 4 2 4 C2.495 15.385 2.495 15.385 3 27 C-6 28 -6 28 -10 28 C-10.66 29.32 -11.32 30.64 -12 32 C-12.66 32 -13.32 32 -14 32 C-14 32.99 -14 33.98 -14 35 C-14.66 35 -15.32 35 -16 35 C-16.37705078 36.05960938 -16.37705078 36.05960938 -16.76171875 37.140625 C-18.13736932 40.31720612 -19.81520888 42.92400492 -21.8125 45.75 C-22.47894531 46.71421875 -23.14539063 47.6784375 -23.83203125 48.671875 C-26 51 -26 51 -28.3984375 52.04296875 C-32.01928913 51.98316489 -33.85165521 50.59585124 -36.8125 48.5625 C-37.78832031 47.90378906 -38.76414062 47.24507812 -39.76953125 46.56640625 C-40.50558594 46.04949219 -41.24164063 45.53257812 -42 45 C-42 45.66 -42 46.32 -42 47 C-42.66 47 -43.32 47 -44 47 C-44.27094482 47.58048096 -44.54188965 48.16096191 -44.82104492 48.7590332 C-46.83607303 52.58921399 -49.61495217 55.81930764 -52.3125 59.1875 C-52.88162109 59.92419922 -53.45074219 60.66089844 -54.03710938 61.41992188 C-54.59849609 62.12052734 -55.15988281 62.82113281 -55.73828125 63.54296875 C-56.24399658 64.18258545 -56.74971191 64.82220215 -57.27075195 65.48120117 C-59.49811043 67.43749046 -61.06015905 67.81187099 -64 68 C-64.99 67.34 -65.98 66.68 -67 66 C-67 65.34 -67 64.68 -67 64 C-67.66 64 -68.32 64 -69 64 C-68.49396008 61.83125748 -68.00016187 60.00032373 -67 58 C-66.34 58 -65.68 58 -65 58 C-65 57.01 -65 56.02 -65 55 C-64.34 55 -63.68 55 -63 55 C-62.566875 54.13375 -62.566875 54.13375 -62.125 53.25 C-61.08333333 51.16666667 -60.04166667 49.08333333 -59 47 C-58.34 47 -57.68 47 -57 47 C-57 46.34 -57 45.68 -57 45 C-56.34 45 -55.68 45 -55 45 C-55 44.34 -55 43.68 -55 43 C-54.34 43 -53.68 43 -53 43 C-52.34 41.35 -51.68 39.7 -51 38 C-50.34 38 -49.68 38 -49 38 C-48.690625 37.38125 -48.38125 36.7625 -48.0625 36.125 C-47.375 34.75 -46.6875 33.375 -46 32 C-38.57142857 31.71428571 -38.57142857 31.71428571 -35 34 C-35 34.66 -35 35.32 -35 36 C-34.34 36 -33.68 36 -33 36 C-33 36.66 -33 37.32 -33 38 C-31.02 37.505 -31.02 37.505 -29 37 C-29 36.01 -29 35.02 -29 34 C-28.34 34 -27.68 34 -27 34 C-27 33.01 -27 32.02 -27 31 C-26.34 31 -25.68 31 -25 31 C-25 30.01 -25 29.02 -25 28 C-24.34 28 -23.68 28 -23 28 C-23 27.01 -23 26.02 -23 25 C-22.34 25 -21.68 25 -21 25 C-20.34 23.35 -19.68 21.7 -19 20 C-18.34 20 -17.68 20 -17 20 C-16.67 18.02 -16.34 16.04 -16 14 C-16.99 13.67 -17.98 13.34 -19 13 C-19 9.7 -19 6.4 -19 3 C-17.535625 3.020625 -16.07125 3.04125 -14.5625 3.0625 C-13.04167482 3.08392007 -11.51928038 3.07179964 -10 3 C-9.67 2.67 -9.34 2.34 -9 2 C-6.9427083 1.68076508 -4.88386479 1.48838648 -2.8125 1.28125 C-0.9832467 1.18001957 -0.9832467 1.18001957 0 0 Z M0 2 C0.33 2.66 0.66 3.32 1 4 C1.33 3.34 1.66 2.68 2 2 C1.34 2 0.68 2 0 2 Z M-8 23 C-8.33 23.99 -8.66 24.98 -9 26 C-8.34 26 -7.68 26 -7 26 C-7.33 25.01 -7.66 24.02 -8 23 Z " fill="#CDCDCD" transform="translate(371,172)"/>
<path d="M0 0 C-0.33 0.33 -0.66 0.66 -1 1 C-1.23075082 2.34747084 -1.41153063 3.70377565 -1.5625 5.0625 C-1.706875 6.361875 -1.85125 7.66125 -2 9 C-8.05453181 11.64885766 -14.06166887 12.88291629 -20.5390625 13.99731445 C-24.3836243 14.62273019 -24.3836243 14.62273019 -28 16 C-29.43960696 16.09445293 -30.88347044 16.12793968 -32.32617188 16.12939453 C-33.22049927 16.13254669 -34.11482666 16.13569885 -35.03625488 16.13894653 C-36.00397827 16.1369223 -36.97170166 16.13489807 -37.96875 16.1328125 C-38.95999878 16.13376923 -39.95124756 16.13472595 -40.97253418 16.13571167 C-43.07072005 16.13639293 -45.16890801 16.13454243 -47.26708984 16.13037109 C-50.4867016 16.12502209 -53.70617385 16.13031794 -56.92578125 16.13671875 C-58.96093781 16.13605796 -60.99609428 16.13477678 -63.03125 16.1328125 C-64.48283508 16.13584885 -64.48283508 16.13584885 -65.96374512 16.13894653 C-66.85807251 16.13579437 -67.7523999 16.13264221 -68.67382812 16.12939453 C-69.85724792 16.12820114 -69.85724792 16.12820114 -71.0645752 16.12698364 C-73 16 -73 16 -75 15 C-75 14.34 -75 13.68 -75 13 C-75.80824219 12.86722656 -76.61648437 12.73445313 -77.44921875 12.59765625 C-79.05216797 12.33275391 -79.05216797 12.33275391 -80.6875 12.0625 C-81.74324219 11.88847656 -82.79898438 11.71445312 -83.88671875 11.53515625 C-84.91410156 11.35855469 -85.94148437 11.18195313 -87 11 C-87.9178125 10.8659375 -88.835625 10.731875 -89.78125 10.59375 C-92 10 -92 10 -93.8125 7.4375 C-94.204375 6.633125 -94.59625 5.82875 -95 5 C-91.1584024 2.43219529 -87.1860825 2.77311118 -82.75 2.875 C-82.00492188 2.88402344 -81.25984375 2.89304687 -80.4921875 2.90234375 C-78.66131941 2.92581642 -76.83061762 2.96168475 -75 3 C-75 3.66 -75 4.32 -75 5 C-73.92878906 4.98839844 -72.85757813 4.97679687 -71.75390625 4.96484375 C-70.35677257 4.95546701 -68.95963701 4.94636669 -67.5625 4.9375 C-66.85544922 4.92912109 -66.14839844 4.92074219 -65.41992188 4.91210938 C-63.61306441 4.90346412 -61.80612397 4.94779989 -60 5 C-59.505 5.495 -59.505 5.495 -59 6 C-57.66956375 6.0983721 -56.33406656 6.13078592 -55 6.1328125 C-54.195625 6.13410156 -53.39125 6.13539063 -52.5625 6.13671875 C-51.2940625 6.13091797 -51.2940625 6.13091797 -50 6.125 C-49.154375 6.12886719 -48.30875 6.13273437 -47.4375 6.13671875 C-46.633125 6.13542969 -45.82875 6.13414062 -45 6.1328125 C-43.88625 6.13112061 -43.88625 6.13112061 -42.75 6.12939453 C-40.97174189 6.18942216 -40.97174189 6.18942216 -40 5 C-37.64686445 4.92728259 -35.29166332 4.91629132 -32.9375 4.9375 C-31.64714844 4.94652344 -30.35679687 4.95554687 -29.02734375 4.96484375 C-28.02832031 4.97644531 -27.02929688 4.98804688 -26 5 C-26 4.34 -26 3.68 -26 3 C-23.03 3 -20.06 3 -17 3 C-17 2.34 -17 1.68 -17 1 C-14.54256214 0.63826036 -12.08441207 0.28531831 -9.625 -0.0625 C-8.57699219 -0.2181543 -8.57699219 -0.2181543 -7.5078125 -0.37695312 C-2.2265625 -1.11328125 -2.2265625 -1.11328125 0 0 Z " fill="#C8C8C8" transform="translate(254,345)"/>
<path d="M0 0 C0.66 0 1.32 0 2 0 C2.33 2.31 2.66 4.62 3 7 C42.6 7.33 82.2 7.66 123 8 C123 7.34 123 6.68 123 6 C123.99 6 124.98 6 126 6 C126 4.35 126 2.7 126 1 C126.33 1 126.66 1 127 1 C127 2.98 127 4.96 127 7 C127.99 7.495 127.99 7.495 129 8 C128.01 8 127.02 8 126 8 C124.35 8.66 122.7 9.32 121 10 C121 46.63 121 83.26 121 121 C120.67 121 120.34 121 120 121 C120 84.7 120 48.4 120 11 C82.71 11 45.42 11 7 11 C7 47.3 7 83.6 7 121 C6.67 121 6.34 121 6 121 C6 84.37 6 47.74 6 10 C3.525 9.01 3.525 9.01 1 8 C0 7 0 7 -0.0625 3.4375 C-0.041875 2.303125 -0.02125 1.16875 0 0 Z " fill="#595A5A" transform="translate(140,159)"/>
<path d="M0 0 C0.66 0.33 1.32 0.66 2 1 C1.44570312 1.53109375 0.89140625 2.0621875 0.3203125 2.609375 C-0.40414062 3.31578125 -1.12859375 4.0221875 -1.875 4.75 C-2.59429687 5.44609375 -3.31359375 6.1421875 -4.0546875 6.859375 C-5.86479679 8.85122217 -6.94848086 10.5427658 -8 13 C-8.66 13 -9.32 13 -10 13 C-10.0928125 13.804375 -10.0928125 13.804375 -10.1875 14.625 C-11.38027382 18.11156962 -13.56197166 20.24940393 -16 23 C-14.68 23 -13.36 23 -12 23 C-12.58543521 26.84968002 -14.38560045 28.94790382 -16.875 31.875 C-19.84362759 35.47140188 -22.19411509 38.71102334 -24 43 C-24.66 43 -25.32 43 -26 43 C-26 43.99 -26 44.98 -26 46 C-26.66 46 -27.32 46 -28 46 C-28.144375 46.598125 -28.28875 47.19625 -28.4375 47.8125 C-28.8872439 49.56150404 -29.42892341 51.28677023 -30 53 C-30.66 53 -31.32 53 -32 53 C-32 54.32 -32 55.64 -32 57 C-32.66 57 -33.32 57 -34 57 C-34 58.32 -34 59.64 -34 61 C-34.66 61 -35.32 61 -36 61 C-36 61.99 -36 62.98 -36 64 C-35.34 64.33 -34.68 64.66 -34 65 C-37.11864545 66.55932272 -39.66295335 65.65549131 -43 65 C-45 63 -45 63 -45.125 59.875 C-45.08375 58.92625 -45.0425 57.9775 -45 57 C-44.34 57 -43.68 57 -43 57 C-43 55.35 -43 53.7 -43 52 C-42.34 52 -41.68 52 -41 52 C-41 50.68 -41 49.36 -41 48 C-40.34 48 -39.68 48 -39 48 C-38.855625 47.401875 -38.71125 46.80375 -38.5625 46.1875 C-38.1127561 44.43849596 -37.57107659 42.71322977 -37 41 C-36.34 41 -35.68 41 -35 41 C-35 40.01 -35 39.02 -35 38 C-34.34 38 -33.68 38 -33 38 C-32.855625 37.38125 -32.71125 36.7625 -32.5625 36.125 C-32 34 -32 34 -31 32 C-30.34 32 -29.68 32 -29 32 C-29 31.34 -29 30.68 -29 30 C-28.34 30 -27.68 30 -27 30 C-26.7834375 29.071875 -26.7834375 29.071875 -26.5625 28.125 C-26 26 -26 26 -25 24 C-24.34 24 -23.68 24 -23 24 C-22.731875 23.41734375 -22.46375 22.8346875 -22.1875 22.234375 C-20.98519009 19.97213399 -19.66174087 18.19423682 -18 16.25 C-17.484375 15.63640625 -16.96875 15.0228125 -16.4375 14.390625 C-15 13 -15 13 -13 13 C-12.731875 12.360625 -12.46375 11.72125 -12.1875 11.0625 C-11 9 -11 9 -8 8 C-8 7.34 -8 6.68 -8 6 C-6.25 4.4921875 -6.25 4.4921875 -4 2.875 C-3.2575 2.33617188 -2.515 1.79734375 -1.75 1.2421875 C-0.88375 0.62730469 -0.88375 0.62730469 0 0 Z " fill="#C1C1C1" transform="translate(111,96)"/>
<path d="M0 0 C0.495 0.99 0.495 0.99 1 2 C3.64 2 6.28 2 9 2 C9 4.97 9 7.94 9 11 C8.34 11 7.68 11 7 11 C6.855625 11.7425 6.71125 12.485 6.5625 13.25 C6.09812508 15.52027739 5.58136431 17.75759479 5 20 C4.34 20 3.68 20 3 20 C3 21.32 3 22.64 3 24 C2.34 24 1.68 24 1 24 C0.8453125 24.804375 0.8453125 24.804375 0.6875 25.625 C-0.18092697 28.62502044 -1.55620296 31.2379535 -3 34 C-3.66 34 -4.32 34 -5 34 C-5.11214844 34.58265625 -5.22429687 35.1653125 -5.33984375 35.765625 C-6.06000876 38.20310657 -7.04379395 39.7250586 -8.5625 41.75 C-9.01753906 42.36359375 -9.47257812 42.9771875 -9.94140625 43.609375 C-10.29074219 44.06828125 -10.64007813 44.5271875 -11 45 C-12.32 43.68 -13.64 42.36 -15 41 C-19.21581488 42.8067778 -22.01875689 45.26418392 -24.28515625 49.2734375 C-26.30784609 52.48946826 -28.71922855 55.12442863 -31.375 57.8125 C-32.07882812 58.56563477 -32.07882812 58.56563477 -32.796875 59.33398438 C-35.14115296 61.71387981 -36.47743456 62.94058503 -39.8515625 63.32421875 C-40.56054688 63.21722656 -41.26953125 63.11023438 -42 63 C-39.32347434 60.31356128 -36.63637055 57.64026817 -33.921875 54.9921875 C-32.86453822 53.95317091 -31.807247 52.91410795 -30.75 51.875 C-30.20859375 51.35035156 -29.6671875 50.82570313 -29.109375 50.28515625 C-26.67352012 47.87974956 -25.09821865 46.29465595 -24 43 C-23.34 43 -22.68 43 -22 43 C-21.71125 42.401875 -21.4225 41.80375 -21.125 41.1875 C-20 39 -20 39 -18 36 C-17.34 36 -16.68 36 -16 36 C-16 35.01 -16 34.02 -16 33 C-15.34 33 -14.68 33 -14 33 C-14 32.01 -14 31.02 -14 30 C-13.34 30 -12.68 30 -12 30 C-12 29.01 -12 28.02 -12 27 C-11.34 27 -10.68 27 -10 27 C-10 25.68 -10 24.36 -10 23 C-9.34 23 -8.68 23 -8 23 C-8 21.68 -8 20.36 -8 19 C-7.34 19 -6.68 19 -6 19 C-5.855625 18.2575 -5.71125 17.515 -5.5625 16.75 C-5.09812508 14.47972261 -4.58136431 12.24240521 -4 10 C-3.34 10 -2.68 10 -2 10 C-1.90912109 9.04287109 -1.90912109 9.04287109 -1.81640625 8.06640625 C-1.73261719 7.24011719 -1.64882813 6.41382813 -1.5625 5.5625 C-1.48128906 4.73878906 -1.40007812 3.91507812 -1.31640625 3.06640625 C-1 1 -1 1 0 0 Z " fill="#AFAEAE" transform="translate(336,256)"/>
<path d="M0 0 C0.66 0 1.32 0 2 0 C3.2077558 3.62326739 2.54311128 4.64146369 1 8 C0.34 8 -0.32 8 -1 8 C-1 9.32 -1 10.64 -1 12 C0.32 12 1.64 12 3 12 C3 12.66 3 13.32 3 14 C0.69 14.33 -1.62 14.66 -4 15 C-3.95875 16.093125 -3.9175 17.18625 -3.875 18.3125 C-4 22 -4 22 -6 25 C-5.34 25.33 -4.68 25.66 -4 26 C-7.46721329 27.73360665 -11.23852315 26.48361845 -15 26 C-15 22.7 -15 19.4 -15 16 C-14.34 16 -13.68 16 -13 16 C-13 14.02 -13 12.04 -13 10 C-12.34 10 -11.68 10 -11 10 C-11 7.36 -11 4.72 -11 2 C-9 4 -9 4 -8 7 C-5.03 7.495 -5.03 7.495 -2 8 C-1.855625 7.236875 -1.71125 6.47375 -1.5625 5.6875 C-1 3 -1 3 0 0 Z " fill="#D3D2D2" transform="translate(189,83)"/>
<path d="M0 0 C1.65 0.33 3.3 0.66 5 1 C5.08074203 3.62561109 5.1403623 6.24875676 5.1875 8.875 C5.22520508 9.99455078 5.22520508 9.99455078 5.26367188 11.13671875 C5.29296875 13.3046875 5.29296875 13.3046875 5 17 C1.91111478 19.05925681 1.29064073 19.2390374 -2.1875 19.125 C-3.445625 19.08375 -4.70375 19.0425 -6 19 C-6 18.34 -6 17.68 -6 17 C-6.66 17 -7.32 17 -8 17 C-8 11.72 -8 6.44 -8 1 C-7.01 1 -6.02 1 -5 1 C-5 6.28 -5 11.56 -5 17 C-2.69 17 -0.38 17 2 17 C2 11.72 2 6.44 2 1 C1.34 0.67 0.68 0.34 0 0 Z " fill="#4A4948" transform="translate(235,186)"/>
<path d="M0 0 C2 2 2 2 2.265625 5.1875 C2.26046875 6.445625 2.2553125 7.70375 2.25 9 C2.25515625 10.258125 2.2603125 11.51625 2.265625 12.8125 C2 16 2 16 0 18 C-0.99 18 -1.98 18 -3 18 C-3 17.34 -3 16.68 -3 16 C-2.34 16 -1.68 16 -1 16 C-1 11.38 -1 6.76 -1 2 C-3.31 2 -5.62 2 -8 2 C-8 6.62 -8 11.24 -8 16 C-7.34 16 -6.68 16 -6 16 C-6 16.66 -6 17.32 -6 18 C-8.475 17.01 -8.475 17.01 -11 16 C-11.08075665 13.70890403 -11.13907731 11.41700733 -11.1875 9.125 C-11.22230469 7.84882813 -11.25710937 6.57265625 -11.29296875 5.2578125 C-11.19628906 4.18273437 -11.09960938 3.10765625 -11 2 C-6.93150591 -0.71232939 -4.83523216 -0.30699887 0 0 Z " fill="#3C3B3B" transform="translate(238,219)"/>
<path d="M0 0 C0.680625 0.309375 1.36125 0.61875 2.0625 0.9375 C2.15009561 5.14208942 1.90121971 7.02756824 -1.0078125 10.18359375 C-3.26973978 12.17252981 -5.56018247 14.08847526 -7.9375 15.9375 C-9.4296875 14.609375 -9.4296875 14.609375 -10.9375 12.9375 C-11.08929573 9.59799393 -10.46052792 7.64652448 -8.4765625 4.95703125 C-3.86971725 -0.08233441 -3.86971725 -0.08233441 0 0 Z " fill="#ECECED" transform="translate(321.9375,296.0625)"/>
<path d="M0 0 C3.875 0.875 3.875 0.875 5 2 C5.08767112 4.07262076 5.10695873 6.14820294 5.09765625 8.22265625 C5.09443359 9.48271484 5.09121094 10.74277344 5.08789062 12.04101562 C5.07953403 13.38151109 5.07106907 14.72200588 5.0625 16.0625 C5.0574866 17.40689942 5.05292342 18.7513006 5.04882812 20.09570312 C5.03699488 23.39717941 5.02050971 26.69856803 5 30 C4.01 30 3.02 30 2 30 C2 20.76 2 11.52 2 2 C1.34 2 0.68 2 0 2 C0 1.34 0 0.68 0 0 Z " fill="#3A3736" transform="translate(211,251)"/>
<path d="M0 0 C0.99 0 1.98 0 3 0 C3 0.66 3 1.32 3 2 C2.34 2 1.68 2 1 2 C1 11.24 1 20.48 1 30 C0.01 30 -0.98 30 -2 30 C-2 20.76 -2 11.52 -2 2 C-1.34 2 -0.68 2 0 2 C0 1.34 0 0.68 0 0 Z " fill="#514E4E" transform="translate(193,251)"/>
<path d="M0 0 C3.3 0.33 6.6 0.66 10 1 C10 1.33 10 1.66 10 2 C7.03 2 4.06 2 1 2 C1 3.98 1 5.96 1 8 C2.56159059 8.48212214 4.12431928 8.96055873 5.6875 9.4375 C6.55761719 9.70433594 7.42773438 9.97117187 8.32421875 10.24609375 C10.87025921 10.96344529 13.4003423 11.517541 16 12 C16 12.66 16 13.32 16 14 C17.32 14 18.64 14 20 14 C20 14.66 20 15.32 20 16 C20.70898438 16.10570313 21.41796875 16.21140625 22.1484375 16.3203125 C25.3360357 17.08009618 27.76150625 18.28942908 30.625 19.875 C32.03652344 20.64457031 32.03652344 20.64457031 33.4765625 21.4296875 C35.67624166 22.79852809 37.2863802 24.07936573 39 26 C34.86608119 25.27787241 31.36566355 23.22867962 27.6875 21.3125 C13.86555859 14.18036247 13.86555859 14.18036247 -1 10 C-0.67 6.7 -0.34 3.4 0 0 Z " fill="#1A1A1A" transform="translate(242,71)"/>
<path d="M0 0 C0.66 0.33 1.32 0.66 2 1 C-7.66666667 10.66666667 -17.33333333 20.33333333 -27 30 C-26.49396008 27.83125748 -26.00016187 26.00032373 -25 24 C-24.34 24 -23.68 24 -23 24 C-22.731875 23.41734375 -22.46375 22.8346875 -22.1875 22.234375 C-20.98519009 19.97213399 -19.66174087 18.19423682 -18 16.25 C-17.484375 15.63640625 -16.96875 15.0228125 -16.4375 14.390625 C-15 13 -15 13 -13 13 C-12.731875 12.360625 -12.46375 11.72125 -12.1875 11.0625 C-11 9 -11 9 -8 8 C-8 7.34 -8 6.68 -8 6 C-6.25 4.4921875 -6.25 4.4921875 -4 2.875 C-3.2575 2.33617188 -2.515 1.79734375 -1.75 1.2421875 C-0.88375 0.62730469 -0.88375 0.62730469 0 0 Z " fill="#7E7D7B" transform="translate(111,96)"/>
<path d="M0 0 C1.32 0.33 2.64 0.66 4 1 C3.525625 1.433125 3.05125 1.86625 2.5625 2.3125 C0.76313043 4.02309613 0.76313043 4.02309613 0 7 C-0.78375 7.45375 -1.5675 7.9075 -2.375 8.375 C-5.10772177 9.78325027 -5.10772177 9.78325027 -6.30859375 12.23828125 C-8.34645742 15.56569376 -10.90280079 18.12122296 -13.6875 20.8125 C-14.45416992 21.56563477 -14.45416992 21.56563477 -15.23632812 22.33398438 C-16.48634362 23.56063509 -17.7425468 24.78097491 -19 26 C-19.33 25.01 -19.66 24.02 -20 23 C-19.236875 22.2575 -18.47375 21.515 -17.6875 20.75 C-15.04428801 18.176446 -15.04428801 18.176446 -13.3125 15.6875 C-12.879375 15.130625 -12.44625 14.57375 -12 14 C-11.34 14 -10.68 14 -10 14 C-9.74347656 13.41347656 -9.48695313 12.82695312 -9.22265625 12.22265625 C-7.89510249 9.80930773 -6.44491314 8.31080621 -4.4375 6.4375 C-2.00373705 4.1656506 -1.07740206 3.23220618 0 0 Z " fill="#878786" transform="translate(162,135)"/>
<path d="M0 0 C3.63 0 7.26 0 11 0 C11 0.66 11 1.32 11 2 C8.36 2 5.72 2 3 2 C3 7.28 3 12.56 3 18 C2.01 18 1.02 18 0 18 C0 12.06 0 6.12 0 0 Z " fill="#413F3F" transform="translate(197,219)"/>
<path d="M0 0 C0.495 0.99 0.495 0.99 1 2 C0.34 2 -0.32 2 -1 2 C-1 2.66 -1 3.32 -1 4 C-2.390625 5.5078125 -2.390625 5.5078125 -4.25 7.125 C-4.85328125 7.66382813 -5.4565625 8.20265625 -6.078125 8.7578125 C-8 10 -8 10 -12 10 C-12.66 11.32 -13.32 12.64 -14 14 C-15.65 14 -17.3 14 -19 14 C-19 14.66 -19 15.32 -19 16 C-20.32 16 -21.64 16 -23 16 C-23 16.66 -23 17.32 -23 18 C-24.32 18 -25.64 18 -27 18 C-27 18.66 -27 19.32 -27 20 C-28.32 20 -29.64 20 -31 20 C-31 20.66 -31 21.32 -31 22 C-32.65 22.33 -34.3 22.66 -36 23 C-36 22.34 -36 21.68 -36 21 C-34.68 21 -33.36 21 -32 21 C-32 20.34 -32 19.68 -32 19 C-30.68 19 -29.36 19 -28 19 C-28 18.34 -28 17.68 -28 17 C-26.68 17 -25.36 17 -24 17 C-24 16.34 -24 15.68 -24 15 C-22.68 15 -21.36 15 -20 15 C-20 14.34 -20 13.68 -20 13 C-18.68 13 -17.36 13 -16 13 C-16 12.34 -16 11.68 -16 11 C-15.01 11 -14.02 11 -13 11 C-13 10.34 -13 9.68 -13 9 C-12.01 9 -11.02 9 -10 9 C-10 8.34 -10 7.68 -10 7 C-9.01 7 -8.02 7 -7 7 C-7 6.34 -7 5.68 -7 5 C-5.35 4.34 -3.7 3.68 -2 3 C-2 2.34 -2 1.68 -2 1 C-1.34 0.67 -0.68 0.34 0 0 Z " fill="#4E4E4D" transform="translate(293,319)"/>
<path d="M0 0 C0.66 0 1.32 0 2 0 C2.46557346 3.18141867 2.50963377 5.25343123 0.6640625 7.95703125 C-0.84258024 9.6935608 -2.37936464 11.369718 -4 13 C-3.34 13.33 -2.68 13.66 -2 14 C-5.22727857 15.61363928 -7.68923051 14.08456242 -11 13 C-11.7425 12.608125 -12.485 12.21625 -13.25 11.8125 C-15.17296783 10.67636556 -15.17296783 10.67636556 -18 12 C-18.33 12.99 -18.66 13.98 -19 15 C-19 13.35 -19 11.7 -19 10 C-18.01 10 -17.02 10 -16 10 C-16 9.34 -16 8.68 -16 8 C-13.13275314 8.57344937 -12.1385485 8.8614515 -10 11 C-6.86978448 10.83525181 -5.26414437 10.19810828 -2.75 8.3125 C-0.64738963 5.53405058 -0.31204221 3.43246436 0 0 Z " fill="#222222" transform="translate(89,219)"/>
<path d="M0 0 C0 0.66 0 1.32 0 2 C-1.670625 2.12375 -1.670625 2.12375 -3.375 2.25 C-5.169375 2.62125 -5.169375 2.62125 -7 3 C-7.71202678 4.30967175 -8.3718233 5.64810642 -9 7 C-10.3086579 8.41838177 -11.66657645 9.79241236 -13.0625 11.125 C-15.91571933 13.77905 -15.91571933 13.77905 -18 17 C-18.66 17 -19.32 17 -20 17 C-20 16.01 -20 15.02 -20 14 C-19.34 14 -18.68 14 -18 14 C-18 13.01 -18 12.02 -18 11 C-17.34 11 -16.68 11 -16 11 C-15.731875 10.360625 -15.46375 9.72125 -15.1875 9.0625 C-14 7 -14 7 -11 6 C-11 5.34 -11 4.68 -11 4 C-10.01 4 -9.02 4 -8 4 C-8 3.34 -8 2.68 -8 2 C-4.91190305 0.23537317 -3.76687864 0 0 0 Z " fill="#71706F" transform="translate(200,48)"/>
<path d="M0 0 C0.66 0 1.32 0 2 0 C2.33 2.64 2.66 5.28 3 8 C4.32 7.67 5.64 7.34 7 7 C7.66 4.69 8.32 2.38 9 0 C9.66 0 10.32 0 11 0 C11.25 5.625 11.25 5.625 9 9 C9.66 9.33 10.32 9.66 11 10 C7.53278671 11.73360665 3.76147685 10.48361845 0 10 C0 6.7 0 3.4 0 0 Z " fill="#262626" transform="translate(174,99)"/>
<path d="M0 0 C0.99 0 1.98 0 3 0 C3 4.62 3 9.24 3 14 C3.66 14 4.32 14 5 14 C5 14.66 5 15.32 5 16 C2.525 15.01 2.525 15.01 0 14 C0 9.38 0 4.76 0 0 Z " fill="#484646" transform="translate(227,221)"/>
<path d="M0 0 C0.66 0.66 1.32 1.32 2 2 C0.63016497 5.16115776 0.0109362 5.9927092 -3 8 C-3.72382467 10.05925139 -3.72382467 10.05925139 -4 12 C-4.66 12 -5.32 12 -6 12 C-6.33 10.68 -6.66 9.36 -7 8 C-7.66 8 -8.32 8 -9 8 C-9 6 -9 6 -7 4 C-5.33333333 3.33333333 -3.66666667 2.66666667 -2 2 C-1.34 1.34 -0.68 0.68 0 0 Z " fill="#A3A3A2" transform="translate(198,73)"/>
<path d="M0 0 C0.66 0 1.32 0 2 0 C3.2077558 3.62326739 2.54311128 4.64146369 1 8 C0.34 8 -0.32 8 -1 8 C-1 9.32 -1 10.64 -1 12 C0.32 12 1.64 12 3 12 C3 12.66 3 13.32 3 14 C1.02 14.33 -0.96 14.66 -3 15 C-3.36263859 9.1977825 -2.25684543 5.36000789 0 0 Z " fill="#3C3C3B" transform="translate(189,83)"/>
<path d="M0 0 C-0.33 0.99 -0.66 1.98 -1 3 C-0.01 2.67 0.98 2.34 2 2 C2 2.99 2 3.98 2 5 C-0.31 5.33 -2.62 5.66 -5 6 C-5 5.01 -5 4.02 -5 3 C-5.99 2.67 -6.98 2.34 -8 2 C-6.14210462 -1.71579076 -3.44525918 -1.06921837 0 0 Z " fill="#F7F7F7" transform="translate(165,74)"/>
<path d="M0 0 C3.63 0 7.26 0 11 0 C11.33 1.32 11.66 2.64 12 4 C8.04 3.67 4.08 3.34 0 3 C0 2.01 0 1.02 0 0 Z " fill="#5A5A5B" transform="translate(167,219)"/>
<path d="M0 0 C1.32 0.33 2.64 0.66 4 1 C3.67 10.57 3.34 20.14 3 30 C2.67 30 2.34 30 2 30 C2 20.76 2 11.52 2 2 C1.34 2 0.68 2 0 2 C0 1.34 0 0.68 0 0 Z " fill="#777675" transform="translate(211,251)"/>
<path d="M0 0 C0.7109375 1.77734375 0.7109375 1.77734375 1 4 C-0.3984375 5.81640625 -0.3984375 5.81640625 -2.375 7.5625 C-5.40558558 10.26375409 -5.40558558 10.26375409 -7 14 C-7.66 14 -8.32 14 -9 14 C-8.49396008 11.83125748 -8.00016187 10.00032373 -7 8 C-6.34 8 -5.68 8 -5 8 C-5 7.01 -5 6.02 -5 5 C-4.34 5 -3.68 5 -3 5 C-2.690625 4.360625 -2.38125 3.72125 -2.0625 3.0625 C-1 1 -1 1 0 0 Z " fill="#727271" transform="translate(311,222)"/>
<path d="M0 0 C2.31 0 4.62 0 7 0 C7 0.33 7 0.66 7 1 C6.29875 1.020625 5.5975 1.04125 4.875 1.0625 C0.63242249 2.44594919 -1.42179573 5.46720744 -4 9 C-4.33 9.66 -4.66 10.32 -5 11 C-5.66 11 -6.32 11 -7 11 C-6.34 9.35 -5.68 7.7 -5 6 C-4.34 6 -3.68 6 -3 6 C-2.690625 5.38125 -2.38125 4.7625 -2.0625 4.125 C-1.375 2.75 -0.6875 1.375 0 0 Z " fill="#6A6A6A" transform="translate(325,204)"/>
<path d="M0 0 C2.31 0 4.62 0 7 0 C7 1.98 7 3.96 7 6 C6.01 6.495 6.01 6.495 5 7 C4.67 6.34 4.34 5.68 4 5 C3.34 5 2.68 5 2 5 C1.34 3.35 0.68 1.7 0 0 Z " fill="#959596" transform="translate(162,72)"/>
<path d="M0 0 C3.3 0.33 6.6 0.66 10 1 C10 3.31 10 5.62 10 8 C9.34 8 8.68 8 8 8 C8 6.35 8 4.7 8 3 C4.41672247 1.99782936 4.41672247 1.99782936 1 3 C0.67 2.01 0.34 1.02 0 0 Z " fill="#3D3D3D" transform="translate(44,228)"/>
<path d="M0 0 C1.65 0 3.3 0 5 0 C5 0.66 5 1.32 5 2 C1.02806853 5.12940055 -2.04230204 5.29162929 -7 5 C-4.66785852 3.79371992 -2.50357861 2.8345262 0 2 C0 1.34 0 0.68 0 0 Z " fill="#545353" transform="translate(79,172)"/>
<path d="M0 0 C0.33 0 0.66 0 1 0 C0.67 4.95 0.34 9.9 0 15 C-0.33 15 -0.66 15 -1 15 C-1.33 10.71 -1.66 6.42 -2 2 C-1.34 2 -0.68 2 0 2 C0 1.34 0 0.68 0 0 Z " fill="#A3A3A3" transform="translate(354,228)"/>
<path d="M0 0 C2.475 0.495 2.475 0.495 5 1 C4.67 2.32 4.34 3.64 4 5 C4.66 5 5.32 5 6 5 C5.67 5.99 5.34 6.98 5 8 C3.5 6.625 3.5 6.625 2 5 C2 4.34 2 3.68 2 3 C1.34 3 0.68 3 0 3 C0 2.01 0 1.02 0 0 Z " fill="#7D7B7A" transform="translate(312,124)"/>
<path d="M0 0 C0.66 0.66 1.32 1.32 2 2 C0.95125002 4.62187494 0.35068687 5.79371361 -2.125 7.25 C-2.74375 7.4975 -3.3625 7.745 -4 8 C-4 4 -4 4 -2 1.75 C-1.01 0.88375 -1.01 0.88375 0 0 Z " fill="#3E3E3D" transform="translate(198,73)"/>
<path d="M0 0 C0.99 0.33 1.98 0.66 3 1 C3 1.66 3 2.32 3 3 C3.66 3 4.32 3 5 3 C5 3.66 5 4.32 5 5 C5.66 5.33 6.32 5.66 7 6 C4.69 6 2.38 6 0 6 C-0.33 5.34 -0.66 4.68 -1 4 C-0.34 4 0.32 4 1 4 C0.67 2.68 0.34 1.36 0 0 Z " fill="#1F1F1F" transform="translate(363,194)"/>
<path d="M0 0 C0.75 1.6875 0.75 1.6875 1 4 C-0.8125 6.75 -0.8125 6.75 -3 9 C-3.66 9 -4.32 9 -5 9 C-5 8.01 -5 7.02 -5 6 C-4.34 6 -3.68 6 -3 6 C-3 5.01 -3 4.02 -3 3 C-2.34 3 -1.68 3 -1 3 C-0.67 2.01 -0.34 1.02 0 0 Z " fill="#6D6D6D" transform="translate(351,194)"/>
<path d="M0 0 C0.99 0 1.98 0 3 0 C3 0.66 3 1.32 3 2 C4.65 2 6.3 2 8 2 C7.67 2.66 7.34 3.32 7 4 C3.9375 4.625 3.9375 4.625 1 5 C0.67 3.35 0.34 1.7 0 0 Z " fill="#101011" transform="translate(37,229)"/>
<path d="M0 0 C0.99 0 1.98 0 3 0 C3 0.66 3 1.32 3 2 C2.34 2 1.68 2 1 2 C0.34 3.32 -0.32 4.64 -1 6 C-1.99 6 -2.98 6 -4 6 C-2.1875 3 -2.1875 3 0 0 Z " fill="#484843" transform="translate(205,65)"/>
<path d="M0 0 C0.66 0 1.32 0 2 0 C2 0.66 2 1.32 2 2 C1.01 1.67 0.02 1.34 -1 1 C-0.67 0.67 -0.34 0.34 0 0 Z " fill="#000000" transform="translate(339,206)"/>
<path d="M0 0 C0.99 0.33 1.98 0.66 3 1 C2.01 1 1.02 1 0 1 C0 0.67 0 0.34 0 0 Z " fill="#000000" transform="translate(294,332)"/>
<path d="M0 0 C0.99 0.33 1.98 0.66 3 1 C2.01 1 1.02 1 0 1 C0 0.67 0 0.34 0 0 Z " fill="#000000" transform="translate(306,322)"/>
<path d="M0 0 C0.99 0.33 1.98 0.66 3 1 C2.01 1 1.02 1 0 1 C0 0.67 0 0.34 0 0 Z " fill="#000000" transform="translate(308,320)"/>
<path d="M0 0 C0.99 0.33 1.98 0.66 3 1 C2.01 1 1.02 1 0 1 C0 0.67 0 0.34 0 0 Z " fill="#000000" transform="translate(310,318)"/>
<path d="M0 0 C0.99 0.33 1.98 0.66 3 1 C2.01 1 1.02 1 0 1 C0 0.67 0 0.34 0 0 Z " fill="#000000" transform="translate(312,316)"/>
<path d="M0 0 C0.99 0.33 1.98 0.66 3 1 C2.01 1 1.02 1 0 1 C0 0.67 0 0.34 0 0 Z " fill="#000000" transform="translate(314,314)"/>
<path d="M0 0 C0.66 0.66 1.32 1.32 2 2 C1.01 1.67 0.02 1.34 -1 1 C-0.67 0.67 -0.34 0.34 0 0 Z " fill="#000000" transform="translate(107,310)"/>
<path d="M0 0 C0.66 0.66 1.32 1.32 2 2 C1.01 1.67 0.02 1.34 -1 1 C-0.67 0.67 -0.34 0.34 0 0 Z " fill="#000000" transform="translate(105,308)"/>
<path d="M0 0 C0.66 0.66 1.32 1.32 2 2 C1.01 1.67 0.02 1.34 -1 1 C-0.67 0.67 -0.34 0.34 0 0 Z " fill="#000000" transform="translate(103,306)"/>
<path d="M0 0 C0.66 0.66 1.32 1.32 2 2 C1.01 1.67 0.02 1.34 -1 1 C-0.67 0.67 -0.34 0.34 0 0 Z " fill="#000000" transform="translate(101,304)"/>
<path d="M0 0 C0.66 0.66 1.32 1.32 2 2 C1.01 1.67 0.02 1.34 -1 1 C-0.67 0.67 -0.34 0.34 0 0 Z " fill="#000000" transform="translate(93,294)"/>
<path d="M0 0 C0.66 0.66 1.32 1.32 2 2 C1.01 1.67 0.02 1.34 -1 1 C-0.67 0.67 -0.34 0.34 0 0 Z " fill="#000000" transform="translate(91,292)"/>
<path d="M0 0 C0.99 0.33 1.98 0.66 3 1 C2.01 1 1.02 1 0 1 C0 0.67 0 0.34 0 0 Z " fill="#000000" transform="translate(316,234)"/>
<path d="M0 0 C0.99 0.33 1.98 0.66 3 1 C2.01 1 1.02 1 0 1 C0 0.67 0 0.34 0 0 Z " fill="#000000" transform="translate(86,230)"/>
<path d="M0 0 C0.99 0.33 1.98 0.66 3 1 C2.01 1 1.02 1 0 1 C0 0.67 0 0.34 0 0 Z " fill="#000000" transform="translate(88,228)"/>
<path d="M0 0 C0.66 0 1.32 0 2 0 C2 0.66 2 1.32 2 2 C1.34 2 0.68 2 0 2 C0 1.34 0 0.68 0 0 Z " fill="#000000" transform="translate(323,226)"/>
<path d="M0 0 C0.66 0.66 1.32 1.32 2 2 C1.01 1.67 0.02 1.34 -1 1 C-0.67 0.67 -0.34 0.34 0 0 Z " fill="#000000" transform="translate(53,210)"/>
<path d="M0 0 C0.66 0.66 1.32 1.32 2 2 C1.01 1.67 0.02 1.34 -1 1 C-0.67 0.67 -0.34 0.34 0 0 Z " fill="#000000" transform="translate(251,140)"/>
<path d="M0 0 C0.66 0.66 1.32 1.32 2 2 C1.01 1.67 0.02 1.34 -1 1 C-0.67 0.67 -0.34 0.34 0 0 Z " fill="#000000" transform="translate(249,138)"/>
<path d="M0 0 C0.66 0.66 1.32 1.32 2 2 C1.01 1.67 0.02 1.34 -1 1 C-0.67 0.67 -0.34 0.34 0 0 Z " fill="#000000" transform="translate(247,136)"/>
<path d="M0 0 C0.66 0.66 1.32 1.32 2 2 C1.01 1.67 0.02 1.34 -1 1 C-0.67 0.67 -0.34 0.34 0 0 Z " fill="#000000" transform="translate(245,134)"/>
<path d="M0 0 C0.99 0.33 1.98 0.66 3 1 C2.01 1 1.02 1 0 1 C0 0.67 0 0.34 0 0 Z " fill="#000000" transform="translate(92,130)"/>
<path d="M0 0 C0.99 0.33 1.98 0.66 3 1 C2.01 1 1.02 1 0 1 C0 0.67 0 0.34 0 0 Z " fill="#000000" transform="translate(94,128)"/>
<path d="M0 0 C0.66 0.66 1.32 1.32 2 2 C1.01 1.67 0.02 1.34 -1 1 C-0.67 0.67 -0.34 0.34 0 0 Z " fill="#000000" transform="translate(325,122)"/>
<path d="M0 0 C0.99 0.33 1.98 0.66 3 1 C2.01 1 1.02 1 0 1 C0 0.67 0 0.34 0 0 Z " fill="#000000" transform="translate(102,118)"/>
<path d="M0 0 C0.66 0.66 1.32 1.32 2 2 C1.01 1.67 0.02 1.34 -1 1 C-0.67 0.67 -0.34 0.34 0 0 Z " fill="#000000" transform="translate(317,112)"/>
<path d="M0 0 C0.66 0.66 1.32 1.32 2 2 C1.01 1.67 0.02 1.34 -1 1 C-0.67 0.67 -0.34 0.34 0 0 Z " fill="#000000" transform="translate(315,110)"/>
<path d="M0 0 C0.66 0.66 1.32 1.32 2 2 C1.01 1.67 0.02 1.34 -1 1 C-0.67 0.67 -0.34 0.34 0 0 Z " fill="#000000" transform="translate(313,108)"/>
<path d="M0 0 C0.66 0.66 1.32 1.32 2 2 C1.01 1.67 0.02 1.34 -1 1 C-0.67 0.67 -0.34 0.34 0 0 Z " fill="#000000" transform="translate(311,106)"/>
<path d="M0 0 C0.66 0.66 1.32 1.32 2 2 C1.01 1.67 0.02 1.34 -1 1 C-0.67 0.67 -0.34 0.34 0 0 Z " fill="#000000" transform="translate(309,104)"/>
<path d="M0 0 C0.66 0.66 1.32 1.32 2 2 C1.01 1.67 0.02 1.34 -1 1 C-0.67 0.67 -0.34 0.34 0 0 Z " fill="#000000" transform="translate(307,102)"/>
<path d="M0 0 C0.66 0.66 1.32 1.32 2 2 C1.01 1.67 0.02 1.34 -1 1 C-0.67 0.67 -0.34 0.34 0 0 Z " fill="#000000" transform="translate(305,100)"/>
<path d="M0 0 C0.66 0.66 1.32 1.32 2 2 C1.01 1.67 0.02 1.34 -1 1 C-0.67 0.67 -0.34 0.34 0 0 Z " fill="#000000" transform="translate(303,98)"/>
<path d="M0 0 C0.66 0.66 1.32 1.32 2 2 C1.01 1.67 0.02 1.34 -1 1 C-0.67 0.67 -0.34 0.34 0 0 Z " fill="#000000" transform="translate(295,92)"/>
<path d="M0 0 C0.99 0.33 1.98 0.66 3 1 C2.01 1 1.02 1 0 1 C0 0.67 0 0.34 0 0 Z " fill="#000000" transform="translate(228,84)"/>
<path d="M0 0 C0.66 0 1.32 0 2 0 C1.67 0.66 1.34 1.32 1 2 C0.67 1.34 0.34 0.68 0 0 Z " fill="#000000" transform="translate(109,330)"/>
<path d="M0 0 C0.33 0.66 0.66 1.32 1 2 C0.34 1.67 -0.32 1.34 -1 1 C-0.67 0.67 -0.34 0.34 0 0 Z " fill="#000000" transform="translate(288,320)"/>
<path d="M0 0 C0.66 0 1.32 0 2 0 C1.67 0.66 1.34 1.32 1 2 C0.67 1.34 0.34 0.68 0 0 Z " fill="#000000" transform="translate(97,320)"/>
<path d="M0 0 C0.33 0.66 0.66 1.32 1 2 C0.34 1.67 -0.32 1.34 -1 1 C-0.67 0.67 -0.34 0.34 0 0 Z " fill="#000000" transform="translate(296,314)"/>
<path d="M0 0 C0.33 0.66 0.66 1.32 1 2 C0.34 1.67 -0.32 1.34 -1 1 C-0.67 0.67 -0.34 0.34 0 0 Z " fill="#000000" transform="translate(298,312)"/>
<path d="M0 0 C0.33 0.66 0.66 1.32 1 2 C0.34 1.67 -0.32 1.34 -1 1 C-0.67 0.67 -0.34 0.34 0 0 Z " fill="#000000" transform="translate(300,310)"/>
<path d="M0 0 C0.33 0.66 0.66 1.32 1 2 C0.34 1.67 -0.32 1.34 -1 1 C-0.67 0.67 -0.34 0.34 0 0 Z " fill="#000000" transform="translate(302,308)"/>
<path d="M0 0 C0.33 0.66 0.66 1.32 1 2 C0.34 1.67 -0.32 1.34 -1 1 C-0.67 0.67 -0.34 0.34 0 0 Z " fill="#000000" transform="translate(304,306)"/>
<path d="M0 0 C0.33 0.66 0.66 1.32 1 2 C0.34 1.67 -0.32 1.34 -1 1 C-0.67 0.67 -0.34 0.34 0 0 Z " fill="#000000" transform="translate(306,304)"/>
<path d="M0 0 C0.33 0.66 0.66 1.32 1 2 C0.34 1.67 -0.32 1.34 -1 1 C-0.67 0.67 -0.34 0.34 0 0 Z " fill="#000000" transform="translate(308,302)"/>
<path d="M0 0 C0.33 0.66 0.66 1.32 1 2 C0.34 1.67 -0.32 1.34 -1 1 C-0.67 0.67 -0.34 0.34 0 0 Z " fill="#000000" transform="translate(314,294)"/>
<path d="M0 0 C0.33 0.66 0.66 1.32 1 2 C0.34 1.67 -0.32 1.34 -1 1 C-0.67 0.67 -0.34 0.34 0 0 Z " fill="#000000" transform="translate(316,292)"/>
<path d="M0 0 C0.66 0 1.32 0 2 0 C1.67 0.66 1.34 1.32 1 2 C0.67 1.34 0.34 0.68 0 0 Z " fill="#000000" transform="translate(35,230)"/>
<path d="M0 0 C0.33 0.66 0.66 1.32 1 2 C0.34 1.67 -0.32 1.34 -1 1 C-0.67 0.67 -0.34 0.34 0 0 Z " fill="#000000" transform="translate(308,222)"/>
<path d="M0 0 C0.33 0.66 0.66 1.32 1 2 C0.34 1.67 -0.32 1.34 -1 1 C-0.67 0.67 -0.34 0.34 0 0 Z " fill="#000000" transform="translate(32,216)"/>
<path d="M0 0 C0.33 0.66 0.66 1.32 1 2 C0.34 1.67 -0.32 1.34 -1 1 C-0.67 0.67 -0.34 0.34 0 0 Z " fill="#000000" transform="translate(316,212)"/>
<path d="M0 0 C0.33 0.66 0.66 1.32 1 2 C0.34 1.67 -0.32 1.34 -1 1 C-0.67 0.67 -0.34 0.34 0 0 Z " fill="#000000" transform="translate(318,210)"/>
<path d="M0 0 C0.66 0 1.32 0 2 0 C1.67 0.66 1.34 1.32 1 2 C0.67 1.34 0.34 0.68 0 0 Z " fill="#000000" transform="translate(69,194)"/>
<path d="M0 0 C0.33 0.66 0.66 1.32 1 2 C0.34 1.67 -0.32 1.34 -1 1 C-0.67 0.67 -0.34 0.34 0 0 Z " fill="#000000" transform="translate(76,172)"/>
<path d="M0 0 C0.33 0.66 0.66 1.32 1 2 C0.34 1.67 -0.32 1.34 -1 1 C-0.67 0.67 -0.34 0.34 0 0 Z " fill="#000000" transform="translate(152,144)"/>
<path d="M0 0 C0.33 0.66 0.66 1.32 1 2 C0.34 1.67 -0.32 1.34 -1 1 C-0.67 0.67 -0.34 0.34 0 0 Z " fill="#000000" transform="translate(154,142)"/>
<path d="M0 0 C0.66 0 1.32 0 2 0 C1.67 0.66 1.34 1.32 1 2 C0.67 1.34 0.34 0.68 0 0 Z " fill="#000000" transform="translate(307,122)"/>
<path d="M0 0 C0.66 0 1.32 0 2 0 C1.67 0.66 1.34 1.32 1 2 C0.67 1.34 0.34 0.68 0 0 Z " fill="#000000" transform="translate(301,116)"/>
<path d="M0 0 C0.66 0 1.32 0 2 0 C1.67 0.66 1.34 1.32 1 2 C0.67 1.34 0.34 0.68 0 0 Z " fill="#000000" transform="translate(295,110)"/>
<path d="M0 0 C0.33 0.66 0.66 1.32 1 2 C0.34 1.67 -0.32 1.34 -1 1 C-0.67 0.67 -0.34 0.34 0 0 Z " fill="#000000" transform="translate(98,104)"/>
<path d="M0 0 C0.33 0.66 0.66 1.32 1 2 C0.34 1.67 -0.32 1.34 -1 1 C-0.67 0.67 -0.34 0.34 0 0 Z " fill="#000000" transform="translate(100,102)"/>
<path d="M0 0 C0.33 0.66 0.66 1.32 1 2 C0.34 1.67 -0.32 1.34 -1 1 C-0.67 0.67 -0.34 0.34 0 0 Z " fill="#000000" transform="translate(110,94)"/>
<path d="M0 0 C0.33 0.66 0.66 1.32 1 2 C0.34 1.67 -0.32 1.34 -1 1 C-0.67 0.67 -0.34 0.34 0 0 Z " fill="#000000" transform="translate(184,54)"/>
<path d="M0 0 C0.33 0.66 0.66 1.32 1 2 C0.34 1.67 -0.32 1.34 -1 1 C-0.67 0.67 -0.34 0.34 0 0 Z " fill="#000000" transform="translate(186,52)"/>
<path d="" fill="#000000" transform="translate(0,0)"/>
<path d="M0 0 C2 1 2 1 2 1 Z " fill="#000000" transform="translate(157,139)"/>
<path d="" fill="#000000" transform="translate(0,0)"/>
<path d="" fill="#000000" transform="translate(0,0)"/>
<path d="" fill="#000000" transform="translate(0,0)"/>
<path d="" fill="#000000" transform="translate(0,0)"/>
<path d="" fill="#000000" transform="translate(0,0)"/>
<path d="" fill="#000000" transform="translate(0,0)"/>
<path d="" fill="#000000" transform="translate(0,0)"/>
<path d="" fill="#000000" transform="translate(0,0)"/>
<path d="" fill="#000000" transform="translate(0,0)"/>
<path d="" fill="#000000" transform="translate(0,0)"/>
<path d="" fill="#000000" transform="translate(0,0)"/>
<path d="" fill="#000000" transform="translate(0,0)"/>
<path d="" fill="#000000" transform="translate(0,0)"/>
<path d="" fill="#000000" transform="translate(0,0)"/>
<path d="" fill="#000000" transform="translate(0,0)"/>
<path d="" fill="#000000" transform="translate(0,0)"/>
<path d="" fill="#000000" transform="translate(0,0)"/>
<path d="" fill="#000000" transform="translate(0,0)"/>
<path d="" fill="#000000" transform="translate(0,0)"/>
<path d="" fill="#000000" transform="translate(0,0)"/>
<path d="" fill="#000000" transform="translate(0,0)"/>
<path d="" fill="#000000" transform="translate(0,0)"/>
<path d="" fill="#000000" transform="translate(0,0)"/>
<path d="" fill="#000000" transform="translate(0,0)"/>
<path d="" fill="#000000" transform="translate(0,0)"/>
<path d="" fill="#000000" transform="translate(0,0)"/>
<path d="" fill="#000000" transform="translate(0,0)"/>
<path d="" fill="#000000" transform="translate(0,0)"/>
<path d="" fill="#000000" transform="translate(0,0)"/>
<path d="" fill="#000000" transform="translate(0,0)"/>
<path d="" fill="#000000" transform="translate(0,0)"/>
<path d="" fill="#000000" transform="translate(0,0)"/>
<path d="" fill="#000000" transform="translate(0,0)"/>
<path d="" fill="#000000" transform="translate(0,0)"/>
<path d="" fill="#000000" transform="translate(0,0)"/>
<path d="" fill="#000000" transform="translate(0,0)"/>
<path d="" fill="#000000" transform="translate(0,0)"/>
<path d="" fill="#000000" transform="translate(0,0)"/>
<path d="" fill="#000000" transform="translate(0,0)"/>
<path d="" fill="#000000" transform="translate(0,0)"/>
<path d="" fill="#000000" transform="translate(0,0)"/>
<path d="" fill="#000000" transform="translate(0,0)"/>
<path d="" fill="#000000" transform="translate(0,0)"/>
<path d="" fill="#000000" transform="translate(0,0)"/>
<path d="" fill="#000000" transform="translate(0,0)"/>
<path d="" fill="#000000" transform="translate(0,0)"/>
<path d="" fill="#000000" transform="translate(0,0)"/>
<path d="" fill="#000000" transform="translate(0,0)"/>
<path d="" fill="#000000" transform="translate(0,0)"/>
<path d="" fill="#000000" transform="translate(0,0)"/>
<path d="" fill="#000000" transform="translate(0,0)"/>
<path d="" fill="#000000" transform="translate(0,0)"/>
<path d="" fill="#000000" transform="translate(0,0)"/>
<path d="" fill="#000000" transform="translate(0,0)"/>
<path d="" fill="#000000" transform="translate(0,0)"/>
<path d="" fill="#000000" transform="translate(0,0)"/>
<path d="" fill="#000000" transform="translate(0,0)"/>
<path d="" fill="#000000" transform="translate(0,0)"/>
<path d="" fill="#000000" transform="translate(0,0)"/>
<path d="" fill="#000000" transform="translate(0,0)"/>
<path d="" fill="#000000" transform="translate(0,0)"/>
<path d="" fill="#000000" transform="translate(0,0)"/>
<path d="" fill="#000000" transform="translate(0,0)"/>
<path d="" fill="#000000" transform="translate(0,0)"/>
<path d="" fill="#000000" transform="translate(0,0)"/>
<path d="" fill="#000000" transform="translate(0,0)"/>
<path d="" fill="#000000" transform="translate(0,0)"/>
<path d="" fill="#000000" transform="translate(0,0)"/>
<path d="" fill="#000000" transform="translate(0,0)"/>
<path d="" fill="#000000" transform="translate(0,0)"/>
<path d="" fill="#000000" transform="translate(0,0)"/>
<path d="" fill="#000000" transform="translate(0,0)"/>
<path d="" fill="#000000" transform="translate(0,0)"/>
<path d="" fill="#000000" transform="translate(0,0)"/>
<path d="" fill="#000000" transform="translate(0,0)"/>
<path d="" fill="#000000" transform="translate(0,0)"/>
<path d="" fill="#000000" transform="translate(0,0)"/>
<path d="" fill="#000000" transform="translate(0,0)"/>
<path d="" fill="#000000" transform="translate(0,0)"/>
<path d="" fill="#000000" transform="translate(0,0)"/>
<path d="" fill="#000000" transform="translate(0,0)"/>
<path d="" fill="#000000" transform="translate(0,0)"/>
<path d="" fill="#000000" transform="translate(0,0)"/>
<path d="" fill="#000000" transform="translate(0,0)"/>
<path d="" fill="#000000" transform="translate(0,0)"/>
<path d="" fill="#000000" transform="translate(0,0)"/>
<path d="" fill="#000000" transform="translate(0,0)"/>
<path d="" fill="#000000" transform="translate(0,0)"/>
<path d="" fill="#000000" transform="translate(0,0)"/>
<path d="" fill="#000000" transform="translate(0,0)"/>
<path d="" fill="#000000" transform="translate(0,0)"/>
<path d="" fill="#000000" transform="translate(0,0)"/>
<path d="" fill="#000000" transform="translate(0,0)"/>
<path d="" fill="#000000" transform="translate(0,0)"/>
<path d="" fill="#000000" transform="translate(0,0)"/>
<path d="" fill="#000000" transform="translate(0,0)"/>
<path d="" fill="#000000" transform="translate(0,0)"/>
<path d="" fill="#000000" transform="translate(0,0)"/>
<path d="" fill="#000000" transform="translate(0,0)"/>
<path d="" fill="#000000" transform="translate(0,0)"/>
<path d="" fill="#000000" transform="translate(0,0)"/>
<path d="" fill="#000000" transform="translate(0,0)"/>
<path d="" fill="#000000" transform="translate(0,0)"/>
<path d="" fill="#000000" transform="translate(0,0)"/>
<path d="" fill="#000000" transform="translate(0,0)"/>
<path d="" fill="#000000" transform="translate(0,0)"/>
<path d="" fill="#000000" transform="translate(0,0)"/>
<path d="" fill="#000000" transform="translate(0,0)"/>
<path d="" fill="#000000" transform="translate(0,0)"/>
<path d="" fill="#000000" transform="translate(0,0)"/>
<path d="" fill="#000000" transform="translate(0,0)"/>
<path d="" fill="#000000" transform="translate(0,0)"/>
<path d="" fill="#000000" transform="translate(0,0)"/>
<path d="" fill="#000000" transform="translate(0,0)"/>
<path d="" fill="#000000" transform="translate(0,0)"/>
<path d="" fill="#000000" transform="translate(0,0)"/>
<path d="" fill="#000000" transform="translate(0,0)"/>
<path d="" fill="#000000" transform="translate(0,0)"/>
<path d="" fill="#000000" transform="translate(0,0)"/>
<path d="" fill="#000000" transform="translate(0,0)"/>
<path d="" fill="#000000" transform="translate(0,0)"/>
<path d="" fill="#000000" transform="translate(0,0)"/>
<path d="" fill="#000000" transform="translate(0,0)"/>
<path d="" fill="#000000" transform="translate(0,0)"/>
<path d="" fill="#000000" transform="translate(0,0)"/>
<path d="" fill="#000000" transform="translate(0,0)"/>
<path d="" fill="#000000" transform="translate(0,0)"/>
<path d="" fill="#000000" transform="translate(0,0)"/>
<path d="" fill="#000000" transform="translate(0,0)"/>
<path d="" fill="#000000" transform="translate(0,0)"/>
<path d="" fill="#000000" transform="translate(0,0)"/>
<path d="" fill="#000000" transform="translate(0,0)"/>
<path d="" fill="#000000" transform="translate(0,0)"/>
<path d="" fill="#000000" transform="translate(0,0)"/>
<path d="" fill="#000000" transform="translate(0,0)"/>
<path d="" fill="#000000" transform="translate(0,0)"/>
<path d="" fill="#000000" transform="translate(0,0)"/>
<path d="" fill="#000000" transform="translate(0,0)"/>
<path d="" fill="#000000" transform="translate(0,0)"/>
<path d="" fill="#000000" transform="translate(0,0)"/>
<path d="" fill="#000000" transform="translate(0,0)"/>
<path d="" fill="#000000" transform="translate(0,0)"/>
<path d="" fill="#000000" transform="translate(0,0)"/>
<path d="" fill="#000000" transform="translate(0,0)"/>
<path d="" fill="#000000" transform="translate(0,0)"/>
<path d="" fill="#000000" transform="translate(0,0)"/>
<path d="" fill="#000000" transform="translate(0,0)"/>
<path d="" fill="#000000" transform="translate(0,0)"/>
<path d="" fill="#000000" transform="translate(0,0)"/>
<path d="" fill="#000000" transform="translate(0,0)"/>
<path d="" fill="#000000" transform="translate(0,0)"/>
<path d="" fill="#000000" transform="translate(0,0)"/>
<path d="" fill="#000000" transform="translate(0,0)"/>
<path d="" fill="#000000" transform="translate(0,0)"/>
<path d="" fill="#000000" transform="translate(0,0)"/>
<path d="" fill="#000000" transform="translate(0,0)"/>
<path d="" fill="#000000" transform="translate(0,0)"/>
<path d="" fill="#000000" transform="translate(0,0)"/>
<path d="" fill="#000000" transform="translate(0,0)"/>
<path d="" fill="#000000" transform="translate(0,0)"/>
<path d="" fill="#000000" transform="translate(0,0)"/>
<path d="" fill="#000000" transform="translate(0,0)"/>
<path d="" fill="#000000" transform="translate(0,0)"/>
<path d="" fill="#000000" transform="translate(0,0)"/>
<path d="" fill="#000000" transform="translate(0,0)"/>
<path d="" fill="#000000" transform="translate(0,0)"/>
<path d="" fill="#000000" transform="translate(0,0)"/>
<path d="" fill="#000000" transform="translate(0,0)"/>
<path d="" fill="#000000" transform="translate(0,0)"/>
<path d="" fill="#000000" transform="translate(0,0)"/>
<path d="" fill="#000000" transform="translate(0,0)"/>
<path d="" fill="#000000" transform="translate(0,0)"/>
<path d="" fill="#000000" transform="translate(0,0)"/>
<path d="" fill="#000000" transform="translate(0,0)"/>
<path d="" fill="#000000" transform="translate(0,0)"/>
<path d="" fill="#000000" transform="translate(0,0)"/>
<path d="" fill="#000000" transform="translate(0,0)"/>
<path d="" fill="#000000" transform="translate(0,0)"/>
<path d="" fill="#000000" transform="translate(0,0)"/>
<path d="" fill="#000000" transform="translate(0,0)"/>
<path d="" fill="#000000" transform="translate(0,0)"/>
<path d="" fill="#000000" transform="translate(0,0)"/>
<path d="" fill="#000000" transform="translate(0,0)"/>
<path d="" fill="#000000" transform="translate(0,0)"/>
<path d="" fill="#000000" transform="translate(0,0)"/>
<path d="" fill="#000000" transform="translate(0,0)"/>
<path d="" fill="#000000" transform="translate(0,0)"/>
<path d="" fill="#000000" transform="translate(0,0)"/>
<path d="" fill="#000000" transform="translate(0,0)"/>
<path d="" fill="#000000" transform="translate(0,0)"/>
<path d="" fill="#000000" transform="translate(0,0)"/>
<path d="" fill="#000000" transform="translate(0,0)"/>
<path d="" fill="#000000" transform="translate(0,0)"/>
<path d="" fill="#000000" transform="translate(0,0)"/>
<path d="" fill="#000000" transform="translate(0,0)"/>
<path d="" fill="#000000" transform="translate(0,0)"/>
<path d="" fill="#000000" transform="translate(0,0)"/>
<path d="" fill="#000000" transform="translate(0,0)"/>
<path d="" fill="#000000" transform="translate(0,0)"/>
<path d="" fill="#000000" transform="translate(0,0)"/>
<path d="" fill="#000000" transform="translate(0,0)"/>
<path d="" fill="#000000" transform="translate(0,0)"/>
<path d="" fill="#000000" transform="translate(0,0)"/>
<path d="" fill="#000000" transform="translate(0,0)"/>
<path d="" fill="#000000" transform="translate(0,0)"/>
<path d="" fill="#000000" transform="translate(0,0)"/>
<path d="" fill="#000000" transform="translate(0,0)"/>
<path d="" fill="#000000" transform="translate(0,0)"/>
<path d="" fill="#000000" transform="translate(0,0)"/>
<path d="" fill="#000000" transform="translate(0,0)"/>
<path d="" fill="#000000" transform="translate(0,0)"/>
<path d="" fill="#000000" transform="translate(0,0)"/>
<path d="" fill="#000000" transform="translate(0,0)"/>
<path d="" fill="#000000" transform="translate(0,0)"/>
<path d="" fill="#000000" transform="translate(0,0)"/>
<path d="" fill="#000000" transform="translate(0,0)"/>
<path d="" fill="#000000" transform="translate(0,0)"/>
<path d="" fill="#000000" transform="translate(0,0)"/>
<path d="" fill="#000000" transform="translate(0,0)"/>
<path d="" fill="#000000" transform="translate(0,0)"/>
<path d="" fill="#000000" transform="translate(0,0)"/>
<path d="" fill="#000000" transform="translate(0,0)"/>
<path d="" fill="#000000" transform="translate(0,0)"/>
<path d="" fill="#000000" transform="translate(0,0)"/>
<path d="" fill="#000000" transform="translate(0,0)"/>
<path d="" fill="#000000" transform="translate(0,0)"/>
<path d="" fill="#000000" transform="translate(0,0)"/>
<path d="" fill="#000000" transform="translate(0,0)"/>
<path d="" fill="#000000" transform="translate(0,0)"/>
<path d="" fill="#000000" transform="translate(0,0)"/>
<path d="" fill="#000000" transform="translate(0,0)"/>
<path d="" fill="#000000" transform="translate(0,0)"/>
<path d="" fill="#000000" transform="translate(0,0)"/>
<path d="" fill="#000000" transform="translate(0,0)"/>
<path d="" fill="#000000" transform="translate(0,0)"/>
<path d="" fill="#000000" transform="translate(0,0)"/>
<path d="" fill="#000000" transform="translate(0,0)"/>
<path d="" fill="#000000" transform="translate(0,0)"/>
<path d="" fill="#000000" transform="translate(0,0)"/>
<path d="" fill="#000000" transform="translate(0,0)"/>
<path d="" fill="#000000" transform="translate(0,0)"/>
<path d="" fill="#000000" transform="translate(0,0)"/>
<path d="" fill="#000000" transform="translate(0,0)"/>
<path d="" fill="#000000" transform="translate(0,0)"/>
<path d="" fill="#000000" transform="translate(0,0)"/>
<path d="" fill="#000000" transform="translate(0,0)"/>
<path d="" fill="#000000" transform="translate(0,0)"/>
<path d="" fill="#000000" transform="translate(0,0)"/>
<path d="" fill="#000000" transform="translate(0,0)"/>
<path d="" fill="#000000" transform="translate(0,0)"/>
<path d="" fill="#000000" transform="translate(0,0)"/>
<path d="" fill="#000000" transform="translate(0,0)"/>
<path d="" fill="#000000" transform="translate(0,0)"/>
<path d="" fill="#000000" transform="translate(0,0)"/>
<path d="" fill="#000000" transform="translate(0,0)"/>
<path d="" fill="#000000" transform="translate(0,0)"/>
<path d="" fill="#000000" transform="translate(0,0)"/>
<path d="" fill="#000000" transform="translate(0,0)"/>
<path d="" fill="#000000" transform="translate(0,0)"/>
<path d="" fill="#000000" transform="translate(0,0)"/>
<path d="" fill="#000000" transform="translate(0,0)"/>
<path d="" fill="#000000" transform="translate(0,0)"/>
<path d="" fill="#000000" transform="translate(0,0)"/>
<path d="" fill="#000000" transform="translate(0,0)"/>
<path d="" fill="#000000" transform="translate(0,0)"/>
<path d="" fill="#000000" transform="translate(0,0)"/>
<path d="" fill="#000000" transform="translate(0,0)"/>
<path d="" fill="#000000" transform="translate(0,0)"/>
<path d="" fill="#000000" transform="translate(0,0)"/>
<path d="" fill="#000000" transform="translate(0,0)"/>
</svg>
